<?xml version="1.0" encoding="UTF-8" standalone="no"?>
<svg
   xmlns:dc="http://purl.org/dc/elements/1.1/"
   xmlns:cc="http://creativecommons.org/ns#"
   xmlns:rdf="http://www.w3.org/1999/02/22-rdf-syntax-ns#"
   xmlns:svg="http://www.w3.org/2000/svg"
   xmlns="http://www.w3.org/2000/svg"
   xmlns:sodipodi="http://sodipodi.sourceforge.net/DTD/sodipodi-0.dtd"
   xmlns:inkscape="http://www.inkscape.org/namespaces/inkscape"
   width="125mm"
   height="90mm"
   viewBox="0 0 125 90"
   version="1.1"
   id="svg8"
   inkscape:version="1.0.2 (e86c8708, 2021-01-15)"
   sodipodi:docname="condensator_with_electrolyte.svg">
  <defs
     id="defs2" />
  <sodipodi:namedview
     id="base"
     pagecolor="#ffffff"
     bordercolor="#666666"
     borderopacity="1.0"
     inkscape:pageopacity="0.0"
     inkscape:pageshadow="2"
     inkscape:zoom="0.53756344"
     inkscape:cx="387.56788"
     inkscape:cy="33.05509"
     inkscape:document-units="mm"
     inkscape:current-layer="layer1"
     inkscape:document-rotation="0"
     showgrid="true"
     inkscape:snap-global="false"
     inkscape:window-width="1248"
     inkscape:window-height="713"
     inkscape:window-x="1939"
     inkscape:window-y="620"
     inkscape:window-maximized="0"
     showguides="false">
    <inkscape:grid
       type="xygrid"
       id="grid10"
       units="mm"
       spacingx="2.5"
       spacingy="2.5"
       empspacing="10" />
  </sodipodi:namedview>
  <metadata
     id="metadata5">
    <rdf:RDF>
      <cc:Work
         rdf:about="">
        <dc:format>image/svg+xml</dc:format>
        <dc:type
           rdf:resource="http://purl.org/dc/dcmitype/StillImage" />
        <dc:title></dc:title>
      </cc:Work>
    </rdf:RDF>
  </metadata>
  <g
     inkscape:label="Ebene 1"
     inkscape:groupmode="layer"
     id="layer1">
    <rect
       style="fill:#b3b3b3;stroke-width:0.591242"
       id="rect1178"
       width="124.57019"
       height="2.2678568"
       x="0.76860493"
       y="74.833679" />
    <rect
       style="fill:#aa4400;stroke-width:0.264583"
       id="rect1180"
       width="24.946428"
       height="2.2678568"
       x="50.188988"
       y="74.833679" />
    <rect
       style="fill:#b3b3b3;stroke-width:0.591242"
       id="rect1176"
       width="124.57019"
       height="2.2678568"
       x="0.76860493"
       y="12.921131" />
    <path
       style="fill:#000000;fill-opacity:1;fill-rule:nonzero;stroke:none;stroke-width:0.264583"
       id="path88"
       d="m 52.603182,22.402162 c -0.180924,0.22146 -0.646009,1.124959 -0.215736,1.336767 0.123992,0.06104 0.276355,0.0052 0.414534,0.0077 0.311978,-0.260204 0.663014,-0.731074 0.507455,-1.172831 -0.02802,-0.07956 -0.08751,-0.144237 -0.131263,-0.216355 -0.10551,-0.03621 -0.20569,-0.121224 -0.316531,-0.108644 -0.562804,0.06387 -0.619408,0.865399 -0.543677,1.268805 0.09962,0.07868 0.173945,0.213396 0.29885,0.236031 0.502012,0.09097 0.736602,-0.676828 0.771863,-1.027637 -0.07723,-0.347799 0.01961,-0.17223 -0.591259,-0.110446 -0.160358,0.367437 0.359278,0.594216 0.519634,0.226779 v 0 c -0.517472,-0.08382 -0.495911,0.08694 -0.4944,-0.148924 0.01111,0.14699 -0.184838,0.422025 -0.160364,0.470384 0.0457,0.0903 0.306091,-0.02321 0.207105,0.222004 -0.08718,-0.215289 0.07357,-0.489401 0.05847,-0.539996 -0.02188,-0.07326 -0.233516,0.03279 -0.189008,-0.129959 0.0043,-0.01319 -2.22e-4,-0.04398 0.01294,-0.03958 0.05241,0.01748 0.02924,0.111292 0.01614,0.164967 -0.03899,0.159722 -0.06942,0.15971 -0.144865,0.306299 -0.01148,0.02232 -0.01752,0.04705 -0.0263,0.07058 0.388218,0.228848 0.03379,-0.04036 0.194416,0.249595 0.01924,0.03471 -0.01021,-0.07945 -0.0058,-0.118886 0.0222,-0.199128 0.105206,-0.382984 0.218707,-0.54579 0.283483,-0.283482 -0.117422,-0.684386 -0.400904,-0.400904 z" />
    <path
       style="fill:#000000;fill-opacity:1;fill-rule:nonzero;stroke:none;stroke-width:0.264583"
       id="path90"
       d="m 52.614435,27.492306 c -0.110355,0.840812 -0.127632,1.686452 -0.09495,2.532433 0.04555,0.842216 0.08071,1.684827 0.100296,2.528041 -0.01505,0.497591 0.08063,0.986758 0.154469,1.476081 0.03217,0.19309 0.04268,0.388546 0.04796,0.583906 0.0013,0.06908 0.0013,0.138174 0.0013,0.207264 2.46e-4,0.400905 0.567208,0.400558 0.566965,-2.64e-4 v 0 c -5.1e-5,-0.07413 -1.33e-4,-0.148265 -0.0016,-0.222382 -0.006,-0.218538 -0.01852,-0.437119 -0.05411,-0.653146 -0.07044,-0.465634 -0.163587,-0.930952 -0.14826,-1.404556 -0.01968,-0.846159 -0.05479,-1.691727 -0.10057,-2.536881 -0.03159,-0.807529 -0.01561,-1.61432 0.08766,-2.417204 0.06591,-0.395451 -0.493342,-0.488659 -0.55925,-0.09321 z" />
    <path
       style="fill:#000000;fill-opacity:1;fill-rule:nonzero;stroke:none;stroke-width:0.264583"
       id="path92"
       d="m 53.219905,39.569347 c 0.02582,-0.263853 0.0053,-1.325462 -0.429093,-1.324919 -0.147789,1.82e-4 -0.272669,0.114093 -0.409001,0.17114 -0.145061,0.360847 -0.248603,0.832948 -2.04e-4,1.182754 0.0507,0.07139 0.111279,0.151357 0.195442,0.175527 0.115965,0.03331 0.241084,-0.01037 0.361628,-0.01556 0.113651,0.08362 0.516609,-1.000429 0.399013,-1.023122 -0.194316,-0.0375 -0.393923,0.03854 -0.590884,0.05781 -0.09783,0.388784 0.451988,0.527145 0.549823,0.138361 v 0 c -0.175297,-0.06682 -0.346102,-0.146889 -0.525889,-0.200467 -0.01476,-0.0044 0.0088,0.03047 0.0066,0.04572 -0.0068,0.04824 -0.0218,0.09498 -0.03317,0.142356 -0.0241,0.100452 -0.08854,0.196575 -0.07967,0.299495 0.0016,0.01812 0.03423,0.01236 0.05135,0.01852 0.05819,0.02146 0.122142,0.03127 0.174582,0.0644 0.01281,0.0081 0.01199,0.05372 -7.93e-4,0.04545 -0.175133,-0.114255 -0.03812,-0.398854 -0.08499,-0.553646 -0.07771,-0.0086 -0.160896,0.0041 -0.233122,-0.02585 -0.03081,-0.01275 -0.07294,-0.107452 -0.04493,-0.08937 0.21051,0.135858 0.110593,0.614566 0.13195,0.811231 -0.05669,0.396875 0.504571,0.477057 0.561266,0.08018 z" />
    <path
       style="fill:#000000;fill-opacity:1;fill-rule:nonzero;stroke:none;stroke-width:0.264583"
       id="path94"
       d="m 52.633183,43.8371 c 0.0093,0.802413 0.0849,1.603256 0.137568,2.40393 0.03424,0.523912 0.04665,1.04879 0.05109,1.573678 0.0024,0.506132 0.0019,1.012272 0.0011,1.518407 -1.8e-4,0.133615 -2.65e-4,0.267227 -5.29e-4,0.400838 -5.29e-4,0.400902 0.566504,0.401551 0.566965,5.3e-4 v 0 c 1.51e-4,-0.133591 2.64e-4,-0.267182 5.29e-4,-0.40077 5.29e-4,-0.507982 0.0013,-1.015968 -0.0011,-1.523947 -0.0046,-0.535694 -0.01733,-1.071375 -0.0523,-1.606069 -0.05185,-0.788291 -0.126389,-1.576765 -0.136342,-2.366716 0,-0.400905 -0.566965,-0.400905 -0.566965,0 z" />
    <path
       style="fill:#000000;fill-opacity:1;fill-rule:nonzero;stroke:none;stroke-width:0.264583"
       id="path96"
       d="m 53.658896,53.602725 c -0.442158,-0.653095 -0.854681,-0.364011 -0.938175,0.329928 -0.04354,0.662154 0.467093,0.926981 0.855094,0.299524 0.06938,-0.141687 0.03795,-0.08408 0.08989,-0.175165 0.195482,-0.350017 -0.299516,-0.626467 -0.494998,-0.27645 v 0 c -0.05973,0.108397 -0.03188,0.0536 -0.08368,0.164328 -0.07531,0.143904 0.05333,0.03328 0.180176,0.132794 0.139628,0.109543 0.0043,0.211611 0.0182,-0.09415 0.0011,-0.03942 0.0021,-0.07884 0.0033,-0.118256 7.93e-4,-0.02331 0.02466,-0.06253 0.0026,-0.06992 -0.04949,-0.01654 -0.104145,0.02878 -0.155371,0.01889 -0.136001,-0.02627 -0.12383,-0.170489 0.0369,0.08018 0.206264,0.343774 0.692433,0.05207 0.486169,-0.2917 z" />
    <path
       style="fill:#000000;fill-opacity:1;fill-rule:nonzero;stroke:none;stroke-width:0.264583"
       id="path98"
       d="m 53.036615,59.351608 c 0.07296,0.858292 0.148786,1.716114 0.229089,2.57397 0.07201,0.763629 0.102074,1.530207 0.11851,2.296768 0.0069,0.359844 0.0073,0.719751 0.0066,1.079643 -1.14e-4,0.04986 -2.28e-4,0.09973 -2.65e-4,0.149593 -7.94e-4,0.400904 0.56605,0.402195 0.566962,0.0013 v 0 c 1.14e-4,-0.04991 2.28e-4,-0.09982 2.65e-4,-0.149731 7.94e-4,-0.364334 2.64e-4,-0.728683 -0.0067,-1.09297 -0.01678,-0.780139 -0.04754,-1.560287 -0.120846,-2.337443 -0.08117,-0.866994 -0.156869,-1.734026 -0.23232,-2.601306 -0.0567,-0.396875 -0.617961,-0.316693 -0.561266,0.08018 z" />
    <path
       style="fill:#000000;fill-opacity:1;fill-rule:nonzero;stroke:none;stroke-width:0.264583"
       id="path100"
       d="m 54.414848,69.477725 c -0.207023,-0.301461 -0.62439,-0.523703 -0.897501,-0.135456 -0.05471,0.07777 -0.0549,0.182081 -0.08235,0.273121 -0.06411,0.395746 0.495565,0.486402 0.559668,0.09066 v 0 c -0.04351,-0.0077 -0.09018,0.01402 -0.132543,0.0016 -0.193249,-0.05719 -0.02183,-0.09495 0.06656,0.06188 0.206262,0.343773 0.692431,0.05207 0.486167,-0.2917 z" />
    <rect
       style="fill:#caecff;fill-rule:evenodd;stroke-width:0.270761;fill-opacity:1"
       id="rect117"
       width="125.66964"
       height="60"
       x="0"
       y="15" />
    <path
       style="fill:none;stroke:#000000;stroke-width:0.264583px;stroke-linecap:butt;stroke-linejoin:miter;stroke-opacity:1"
       d="M 0,15 H 125"
       id="path119"
       sodipodi:nodetypes="cc" />
    <path
       style="fill:none;stroke:#000000;stroke-width:0.264583px;stroke-linecap:butt;stroke-linejoin:miter;stroke-opacity:1"
       d="m 0,75 125,10e-7"
       id="path121"
       sodipodi:nodetypes="cc" />
    <rect
       style="fill:#aa4400;stroke-width:0.264583"
       id="rect123"
       width="24.946428"
       height="2.2678568"
       x="50.188988"
       y="12.921131" />
    <rect
       style="fill:none;stroke:#ff0000;stroke-width:0.71899996;stroke-miterlimit:4;stroke-dasharray:2.1569999,2.1569999;stroke-dashoffset:0"
       id="rect145"
       width="47.5"
       height="60"
       x="62.5"
       y="15" />
    <path
       style="fill:#ff0000;stroke:#ff0000;stroke-width:0.719;stroke-linecap:butt;stroke-linejoin:miter;stroke-opacity:1;stroke-miterlimit:4;stroke-dasharray:none"
       d="M 75,15 H 62.499999"
       id="path970"
       sodipodi:nodetypes="cc" />
    <path
       style="fill:none;stroke:#ff0000;stroke-width:0.719;stroke-linecap:butt;stroke-linejoin:miter;stroke-opacity:1;stroke-miterlimit:4;stroke-dasharray:none"
       d="M 75,75 H 62.499999"
       id="path972" />
    <circle
       id="path1006"
       style="fill:#ff0000;stroke:#ff0000;stroke-width:0.264583"
       cx="74.259163"
       cy="60.539364"
       r="0.0010858285" />
    <circle
       id="path1052"
       style="fill:#ff0000;stroke:#ff0000;stroke-width:0.264583"
       cx="72.721069"
       cy="59.554985"
       r="0.0010858285" />
    <path
       style="fill:#ff0000;stroke:#ff0000;stroke-width:0.264999;stroke-miterlimit:4;stroke-dasharray:none;stroke-dashoffset:0"
       id="path1076"
       d="m 66.457975,69.103229 c 0.06984,-0.354024 0.237918,-0.644748 0.487494,-0.899989 0.0438,-0.02849 0.139883,-0.105402 0.206161,-0.103425 0.01712,5.29e-4 0.02614,0.02214 0.03929,0.03312 0.115758,0.09664 0.155597,0.203618 0.219867,0.341435 0.206171,0.588078 0.282741,1.209288 0.341124,1.826463 0.03533,0.523968 0.04185,1.086824 -0.167915,1.577671 -0.08416,0.124325 -0.211484,0.297386 -0.384315,0.294439 -0.04906,-7.94e-4 -0.136049,-0.05361 -0.171932,-0.07224 -0.241128,-0.166021 -0.276431,-0.447178 -0.313666,-0.716833 -0.0131,-0.260207 0.07575,-0.494607 0.311245,-0.618236 0.182798,-0.06639 0.08753,-0.03248 0.285912,-0.101423 0.164356,-0.05717 0.08351,-0.289605 -0.08085,-0.232436 v 0 c -0.217787,0.07582 -0.107672,0.03531 -0.330189,0.121949 -0.05326,0.03367 -0.111358,0.06067 -0.159764,0.100994 -0.220964,0.1841 -0.281699,0.492578 -0.270073,0.76327 0.05053,0.356523 0.123952,0.704202 0.45371,0.905907 0.05347,0.0231 0.103989,0.05484 0.160414,0.06931 0.32539,0.0834 0.574302,-0.165513 0.726882,-0.420553 0.215299,-0.533712 0.231357,-1.126786 0.185536,-1.695035 -0.0613,-0.645636 -0.142123,-1.296013 -0.364045,-1.909286 -0.201163,-0.413247 -0.427337,-0.680434 -0.864262,-0.336203 -0.279333,0.291332 -0.473665,0.622183 -0.551944,1.022842 -0.03413,0.170635 0.207187,0.218898 0.241316,0.04826 z" />
    <path
       style="fill:#ff0000;stroke:#ff0000;stroke-width:0.264999;stroke-miterlimit:4;stroke-dasharray:none;stroke-dashoffset:0"
       id="path1078"
       d="m 69.384277,72.089438 c 0.439796,-0.08515 0.892011,-0.138086 1.315265,-0.289843 0.397052,-0.245153 0.05398,-0.619662 -0.151323,-0.866897 -0.31804,-0.319498 -0.568294,-0.65265 -0.664766,-1.097949 -0.0095,-0.411761 0.195614,-0.733952 0.528603,-0.957236 0.17113,-0.07809 0.452557,-0.211485 0.618027,-0.03866 0.07797,0.08144 0.133911,0.274254 0.167161,0.363858 0.137832,0.555776 0.182497,1.132692 0.141751,1.70311 -0.04572,0.261453 -0.102021,0.615984 0.301585,0.351168 0.243525,-0.138203 0.513252,-0.175811 0.788273,-0.173472 0.174014,0.0011 0.175625,-0.244948 0.0016,-0.246089 v 0 c -0.323612,-0.0016 -0.640824,0.04813 -0.925045,0.213905 -0.02604,0.01714 -0.0574,0.0281 -0.07807,0.0514 -0.0057,0.0064 0.01783,0.0037 0.02347,0.01013 0.03461,0.03925 0.05657,0.08961 0.09541,0.124682 0.0097,0.0088 -0.0024,-0.02619 -7.94e-4,-0.03914 0.0047,-0.03649 0.01307,-0.0724 0.01961,-0.108603 0.0065,-0.05556 0.01289,-0.111112 0.01934,-0.166669 0.04225,-0.606558 -0.0044,-1.22046 -0.157993,-1.809925 -0.08052,-0.198353 -0.112805,-0.355418 -0.288817,-0.495686 -0.258767,-0.206214 -0.61214,-0.06883 -0.865431,0.05747 -0.441751,0.312004 -0.645702,0.662725 -0.628819,1.214032 0.116456,0.497724 0.358733,0.841325 0.715547,1.200981 0.02058,0.02474 0.324361,0.403307 0.307893,0.431827 -0.01159,0.02005 -0.03442,0.03104 -0.05163,0.04656 -0.40686,0.151395 -0.848246,0.191342 -1.271413,0.2783 -0.171646,0.02861 -0.131188,0.271354 0.04046,0.242747 z" />
    <path
       style="fill:#ff0000;stroke:#ff0000;stroke-width:0.264999;stroke-miterlimit:4;stroke-dasharray:none;stroke-dashoffset:0"
       id="path1080"
       d="m 73.229649,70.491706 c 0.07848,0.571095 0.138991,1.144167 0.218183,1.715217 0.01286,0.07965 0.02569,0.159298 0.03855,0.238946 0.02774,0.171791 0.27069,0.132558 0.242949,-0.03923 v 0 c -0.01259,-0.07784 -0.02516,-0.155681 -0.03774,-0.233521 -0.07952,-0.573265 -0.140076,-1.148591 -0.2192,-1.721866 -0.02861,-0.171649 -0.271354,-0.131191 -0.242747,0.04046 z" />
    <path
       style="fill:#ff0000;stroke:#ff0000;stroke-width:0.264999;stroke-miterlimit:4;stroke-dasharray:none;stroke-dashoffset:0"
       id="path1082"
       d="m 72.609064,70.600228 c 0.130185,-0.357296 0.545761,-0.462008 0.876974,-0.537266 0.590884,-0.04765 0.749425,0.222562 0.852768,0.755611 0.03143,0.599985 -0.331901,1.04104 -0.763349,1.408739 -0.229794,0.178409 -0.469535,0.345893 -0.725602,0.484651 -0.06819,0.03143 -0.01995,0.01842 -0.06386,0.01593 0.03752,0.02896 0.07505,0.05792 0.112569,0.08688 -0.02825,-0.171706 -0.271081,-0.131749 -0.242829,0.03996 v 0 c 0.03928,0.03965 0.07856,0.0793 0.117848,0.118949 0.07002,0.0033 0.133705,-0.0073 0.193688,-0.04542 0.271103,-0.147423 0.525569,-0.324109 0.768387,-0.51412 0.499518,-0.430779 0.896096,-0.949312 0.844212,-1.645047 -0.02175,-0.101155 -0.03289,-0.205179 -0.06521,-0.303464 -0.175167,-0.532632 -0.555061,-0.694094 -1.084487,-0.642318 -0.425612,0.101412 -0.909378,0.256088 -1.059852,0.717251 -0.0422,0.168817 0.196543,0.228505 0.238747,0.05969 z" />
    <path
       style="fill:#ff0000;stroke:#ff0000;stroke-width:0.264999;stroke-miterlimit:4;stroke-dasharray:none;stroke-dashoffset:0"
       id="path1084"
       d="m 64.544683,42.736939 c 0.275822,-0.202594 0.409921,-0.188003 0.70875,-0.03537 0.630134,0.385289 1.068787,0.943168 1.377648,1.60366 0.223046,0.605367 0.379786,1.273824 0.165447,1.906003 -0.04264,0.125751 -0.105963,0.243509 -0.158946,0.365265 -0.242533,0.333889 -0.775282,1.047541 -1.26187,0.731753 -0.253537,-0.332555 -0.280434,-0.718865 -0.135368,-1.099537 0.315253,-0.381206 0.763503,-0.607853 1.236249,-0.725979 0.238401,-0.06105 0.152059,-0.398204 -0.08634,-0.337151 v 0 c -0.584038,0.152617 -1.131093,0.43583 -1.478145,0.947439 -0.198001,0.595672 -0.146788,1.07634 0.315638,1.530238 0.08734,0.03452 0.169293,0.08861 0.262003,0.103574 0.644314,0.104003 1.155557,-0.563295 1.467885,-1.013605 0.05929,-0.141039 0.131257,-0.277395 0.177871,-0.423114 0.2276,-0.711494 0.06713,-1.455137 -0.189775,-2.133629 -0.362958,-0.760413 -0.81575,-1.326372 -1.54274,-1.769179 -0.413279,-0.186886 -0.67904,-0.213847 -1.051357,0.06006 -0.204763,0.136509 -0.01172,0.426088 0.193054,0.289579 z" />
    <path
       style="fill:#ff0000;stroke:#ff0000;stroke-width:0.264999;stroke-miterlimit:4;stroke-dasharray:none;stroke-dashoffset:0"
       id="path1086"
       d="m 68.471324,47.332198 c 0.413266,0.01289 0.855507,-0.109572 1.12137,-0.451225 0.06962,-0.08947 0.111231,-0.19757 0.166847,-0.296355 0.24588,-0.758492 -0.102127,-1.477322 -0.374301,-2.177156 -0.270555,-0.698254 -0.391049,-0.919398 0.12414,-1.499028 0.245909,-0.220975 0.704085,-0.570738 1.039582,-0.299818 0.05531,0.04466 0.09578,0.105074 0.143669,0.157612 0.42604,0.90569 0.262702,1.95843 0.05627,2.900484 -0.123931,0.282255 -0.198594,0.845611 -0.486111,1.038302 0.09037,0.06988 0.18075,0.139756 0.271126,0.209632 0.0046,0.0063 0.0059,0.01929 0.01371,0.01894 0.108373,-0.005 0.213476,-0.04018 0.321378,-0.05143 0.233712,-0.02439 0.349338,-0.02713 0.591929,-0.04009 0.442587,-0.01654 0.225348,-0.0019 0.651809,-0.0428 0.244943,-0.02376 0.211339,-0.370168 -0.0336,-0.346406 v 0 c -0.407728,0.03998 -0.195503,0.02513 -0.63687,0.04168 -0.08358,0.0045 -1.217065,0.05421 -1.186342,0.210741 0.0226,0.115197 0.149921,0.180692 0.22488,0.271039 0.357997,-0.304872 0.463685,-0.812165 0.608134,-1.235374 0.19925,-0.916186 0.360709,-1.93775 0.0436,-2.852148 -0.04588,-0.132297 -0.130982,-0.247536 -0.196472,-0.371303 -0.08402,-0.07655 -0.155363,-0.169899 -0.252058,-0.229639 -0.502375,-0.310378 -1.072655,0.05002 -1.437923,0.393012 -0.592182,0.700608 -0.510191,1.035878 -0.185171,1.8528 0.234024,0.601215 0.557977,1.230889 0.390964,1.888299 -0.215683,0.449766 -0.494321,0.570281 -0.980535,0.562208 -0.246094,0 -0.246094,0.348033 0,0.348033 z" />
    <path
       style="fill:#ff0000;stroke:#ff0000;stroke-width:0.264999;stroke-miterlimit:4;stroke-dasharray:none;stroke-dashoffset:0"
       id="path1088"
       d="m 73.28469,46.252293 c 0.07261,0.502397 0.0923,1.010436 0.130747,1.516126 0.112273,-0.05127 0.260588,-0.05673 0.33682,-0.153799 0.05094,-0.06487 -0.01545,-0.164248 -0.02249,-0.246433 -0.03435,-0.40018 -0.06085,-0.800947 -0.08707,-1.201722 -0.0041,-0.06525 -0.0082,-0.13049 -0.01236,-0.195736 0.0083,-0.0131 0.03079,-0.05369 0.02495,-0.03932 -0.01164,0.0286 -0.02122,0.05989 -0.04243,0.08232 -0.02394,0.02532 -0.09551,0.02185 -0.0883,0.05593 0.01376,0.065 0.09115,0.09698 0.131776,0.149558 0.0587,0.07597 0.110516,0.157007 0.165775,0.235511 0.426008,0.569611 0.790797,1.214541 1.36277,1.652098 0.06717,0.02048 0.1319,0.07075 0.201502,0.06145 0.543086,-0.07262 0.463137,-1.144 0.478763,-1.520407 0.01259,-0.474543 0.01879,-0.949365 0.01318,-1.424067 -0.0029,-0.246076 -0.350923,-0.241956 -0.348007,0.0041 v 0 c 0.0056,0.468545 -5.29e-4,0.937209 -0.01291,1.405604 -0.01146,0.279773 -0.01622,0.51816 -0.04562,0.794991 -0.0087,0.08219 -0.02342,0.163666 -0.03707,0.245192 -0.006,0.03594 -0.0286,0.07128 -0.02191,0.107106 0.0043,0.02294 0.05949,0.02643 0.05089,0.04813 -0.0086,0.02164 -0.04653,-2.52e-4 -0.0698,-2.65e-4 -0.550013,-0.40355 -0.874265,-1.046824 -1.287984,-1.57526 -0.0467,-0.06533 -0.261323,-0.387353 -0.356124,-0.448956 -0.418076,-0.271661 -0.487688,0.06007 -0.454392,0.384834 0.0264,0.40376 0.05316,0.807506 0.08776,1.210662 0.0069,0.0809 -0.03812,0.188185 0.02217,0.24257 0.09176,0.08278 0.238082,0.0664 0.357126,0.09959 -0.03959,-0.519697 -0.05924,-1.041974 -0.136501,-1.557972 -0.04826,-0.241316 -0.389535,-0.173061 -0.341273,0.06826 z" />
    <path
       style="fill:#ff0000;stroke:#ff0000;stroke-width:0.264999;stroke-miterlimit:4;stroke-dasharray:none;stroke-dashoffset:0"
       id="path1090"
       d="m 81.562677,37.407413 c -0.256955,-0.649735 -0.415737,-1.322824 -0.485703,-2.016739 -0.04102,-1.121018 0.26698,-1.664708 1.073504,-2.401342 0.362842,-0.222115 0.882833,-0.564666 1.32692,-0.327144 0.229798,0.122907 0.253645,0.290528 0.36081,0.518456 0.336409,1.175065 0.133101,2.386912 -0.201007,3.535942 -0.108672,0.308523 -0.210471,0.628287 -0.381093,0.910521 -0.02408,0.03985 -0.139541,0.11689 -0.09542,0.10201 0.0371,-0.01252 0.07262,-0.02928 0.108935,-0.04392 0.0011,-0.188812 0.08322,0.07663 0.113056,0.0485 0.0105,-0.0099 0.0062,-0.02892 0.01421,-0.0409 0.01244,-0.01855 0.178263,-0.0081 0.209013,-0.0091 0.749385,0.01733 1.49642,0.04119 2.242577,-0.04475 0.343815,-0.05928 0.190613,-0.02349 0.461737,-0.09777 0.237038,-0.06615 0.143481,-0.401375 -0.09356,-0.335221 v 0 c -0.23054,0.06579 -0.09531,0.03268 -0.408464,0.0873 -0.744112,0.0878 -1.489115,0.05386 -2.236433,0.04409 -0.08485,0.01154 -0.173278,0.0076 -0.254548,0.03461 -0.173982,0.05776 -0.371853,0.295929 -0.271293,0.49757 0.03159,0.06334 0.0969,0.103206 0.145357,0.154811 0.06308,-0.0085 0.129625,-0.0031 0.189233,-0.02537 0.250962,-0.09389 0.507354,-0.98784 0.590978,-1.185534 0.356494,-1.235758 0.566502,-2.537524 0.175263,-3.79375 -0.08491,-0.151481 -0.142335,-0.322064 -0.254728,-0.454443 -0.540477,-0.63659 -1.438262,-0.198765 -1.977107,0.167926 -0.90439,0.836523 -1.224859,1.435423 -1.184169,2.693022 0.07477,0.718891 0.234945,1.417841 0.501751,2.091317 0.07782,0.233468 0.407992,0.123409 0.330171,-0.110056 z" />
    <path
       style="fill:#ff0000;stroke:#ff0000;stroke-width:0.264999;stroke-miterlimit:4;stroke-dasharray:none;stroke-dashoffset:0"
       id="path1092"
       d="m 80.965724,37.43933 c -0.360481,0.07081 -0.726093,0.105603 -1.092258,0.128775 -0.22129,0.01114 -0.442796,0.01894 -0.664371,0.0204 -0.06393,2.49e-4 -0.127868,-10e-6 -0.191797,-7.93e-4 -0.246073,-0.0033 -0.250775,0.344675 -0.0047,0.347998 v 0 c 0.06627,7.94e-4 0.132532,0.0011 0.1988,7.94e-4 0.228155,-0.0016 0.456239,-0.0095 0.684096,-0.02109 0.387141,-0.02461 0.773853,-0.0617 1.154641,-0.13847 0.238747,-0.05969 0.154337,-0.397325 -0.08441,-0.337638 z" />
    <path
       style="fill:#ff0000;stroke:#ff0000;stroke-width:0.264999;stroke-miterlimit:4;stroke-dasharray:none;stroke-dashoffset:0"
       id="path1094"
       d="m 66.137342,17.810176 c 0.314105,-0.262625 0.566939,-0.100175 0.800187,0.166673 0.498639,0.692153 0.615003,1.512667 0.617252,2.343599 -0.0099,0.427943 -0.160766,1.378684 -0.799444,1.156373 -0.311277,-0.244933 -0.176567,-0.553296 0.0048,-0.833295 0.154675,-0.166079 0.345876,-0.293267 0.558842,-0.370269 0.230423,-0.08642 0.108209,-0.412285 -0.122214,-0.325867 v 0 c -0.283014,0.1089 -0.536389,0.274055 -0.730879,0.510284 -0.32662,0.527176 -0.382831,1.008908 0.218075,1.359772 0.09831,0.01437 0.195939,0.05163 0.294931,0.04312 0.740809,-0.06371 0.894529,-0.963118 0.923959,-1.541789 -0.0062,-0.920442 -0.14574,-1.824787 -0.712666,-2.581323 -0.08177,-0.08172 -0.152397,-0.176369 -0.245303,-0.245162 -0.326766,-0.241956 -0.762638,-0.189838 -1.053595,0.07179 -0.174013,0.174015 0.07208,0.42011 0.246097,0.246095 z" />
    <path
       style="fill:#ff0000;stroke:#ff0000;stroke-width:0.264999;stroke-miterlimit:4;stroke-dasharray:none;stroke-dashoffset:0"
       id="path1096"
       d="m 69.29579,21.563367 c 0.343413,-0.635212 0.301746,-1.093958 0.1158,-1.772728 -0.160409,-0.643256 -0.525344,-1.224252 -0.482965,-1.900503 0.102425,-0.507242 0.480787,-0.828653 0.972899,-0.932758 0.594439,0.411739 0.521973,1.277908 0.50655,1.909253 -0.05439,0.760374 -0.198638,1.508616 -0.470072,2.221157 -0.246224,0.509528 0.228465,0.418733 0.542454,0.386617 0.288182,-0.0482 0.573979,-0.108979 0.861433,-0.161123 0.242139,-0.04395 0.179978,-0.386389 -0.06216,-0.342435 v 0 c -0.27859,0.05061 -0.555747,0.108576 -0.834686,0.157334 -0.105045,0.01074 -0.218332,-0.0096 -0.315093,0.03266 -0.01296,0.0057 0.02035,0.021 0.02479,0.03442 0.01923,0.05788 0.02365,0.120304 0.04555,0.17723 0.02072,0.05381 0.0035,-0.525196 0.06304,-0.161086 0.284276,-0.749951 0.437878,-1.536734 0.492676,-2.336948 0.01352,-0.654077 0.06168,-1.762848 -0.612032,-2.162582 -0.09609,-0.05702 -0.214635,-0.06222 -0.321953,-0.09333 -0.689433,0.173407 -1.09628,0.545268 -1.241092,1.256037 -0.0034,0.108596 -0.0186,0.21747 -0.01013,0.325788 0.04599,0.587714 0.383717,1.113702 0.505412,1.683276 0.163812,0.582711 0.214675,0.949556 -0.07886,1.50066 -0.126617,0.211025 0.171817,0.390085 0.298434,0.17906 z" />
    <path
       style="fill:#ff0000;stroke:#ff0000;stroke-width:0.264999;stroke-miterlimit:4;stroke-dasharray:none;stroke-dashoffset:0"
       id="path1098"
       d="m 72.414613,20.672024 c 0.103534,0.388921 0.203587,0.777631 0.289552,1.17103 0.05259,0.240411 0.392578,0.166044 0.339993,-0.07437 v 0 c -0.08567,-0.391302 -0.18401,-0.778364 -0.288272,-1.164917 -0.04826,-0.241316 -0.389535,-0.173062 -0.341273,0.06825 z" />
    <path
       style="fill:#ff0000;stroke:#ff0000;stroke-width:0.264999;stroke-miterlimit:4;stroke-dasharray:none;stroke-dashoffset:0"
       id="path1100"
       d="m 71.533998,20.088541 c 0.492278,-0.262525 1.007248,-0.07634 1.471538,0.151021 0.686364,0.549445 0.545968,0.899377 0.05629,1.531914 -0.374023,0.359328 -0.178276,0.200479 -0.583351,0.481303 -0.201395,0.14143 -0.0013,0.426247 0.200012,0.284818 v 0 c 0.461028,-0.327376 0.239453,-0.143432 0.661,-0.556287 0.08992,-0.121398 0.194681,-0.233096 0.269754,-0.364194 0.410646,-0.717098 0.16806,-1.238681 -0.452112,-1.690837 -0.587431,-0.281263 -1.228294,-0.469491 -1.831949,-0.116163 -0.196876,0.147658 0.01193,0.426082 0.20882,0.278425 z" />
    <path
       style="fill:#ff0000;stroke:#ff0000;stroke-width:0.264999;stroke-miterlimit:4;stroke-dasharray:none;stroke-dashoffset:0"
       id="path1102"
       d="m 94.83841,16.614727 c -0.01064,0.640415 0.130784,1.266301 0.302136,1.878547 0.06673,0.236876 0.401719,0.142511 0.334992,-0.09436 v 0 c -0.16478,-0.580955 -0.298577,-1.176024 -0.289097,-1.784182 0,-0.246095 -0.348031,-0.246095 -0.348031,0 z" />
    <path
       style="fill:#ff0000;stroke:#ff0000;stroke-width:0.264999;stroke-miterlimit:4;stroke-dasharray:none;stroke-dashoffset:0"
       id="path1104"
       d="m 108.15434,26.624362 c -0.86231,0.01426 -1.72218,-0.06521 -2.57896,-0.153453 -0.2448,-0.0252 -0.28044,0.320995 -0.0356,0.346199 v 0 c 0.86862,0.08939 1.74038,0.169537 2.6146,0.155284 0.24609,0 0.24609,-0.34803 0,-0.34803 z" />
    <path
       style="fill:#ff0000;stroke:#ff0000;stroke-width:0.264999;stroke-miterlimit:4;stroke-dasharray:none;stroke-dashoffset:0"
       id="path1106"
       d="m 93.287891,23.277012 c 0.08241,-0.460043 0.251386,-0.723887 0.743498,-0.749567 0.07227,0.01883 0.149987,0.02315 0.216821,0.05649 0.600284,0.299402 0.686464,1.175727 0.762333,1.74424 0.0213,1.027373 -0.148527,2.128222 -0.791662,2.967293 -0.08941,0.116655 -0.204322,0.211341 -0.306483,0.317011 -0.529,0.350594 -0.746371,0.137858 -0.565664,-0.40249 0.177578,-0.39306 0.507784,-0.50211 0.901915,-0.571923 0.241972,-0.04486 0.178535,-0.387058 -0.06344,-0.342201 v 0 c -0.55865,0.107379 -0.930005,0.269954 -1.17384,0.821089 -0.02585,0.106741 -0.07191,0.210542 -0.07756,0.320222 -0.04289,0.833504 0.722913,0.804289 1.23073,0.415195 0.116485,-0.124142 0.247158,-0.236358 0.349456,-0.372427 0.684586,-0.910585 0.872557,-2.089654 0.841346,-3.19906 -0.102195,-0.727163 -0.244922,-1.713768 -1.032877,-2.036965 -0.103008,-0.04225 -0.218739,-0.04168 -0.328108,-0.06253 -0.107968,0.01529 -0.22008,0.01253 -0.323905,0.04587 -0.419145,0.134595 -0.655799,0.556134 -0.720204,0.965346 -0.05969,0.238747 0.277953,0.323157 0.33764,0.08441 z" />
    <path
       style="fill:#ff0000;stroke:#ff0000;stroke-width:0.264999;stroke-miterlimit:4;stroke-dasharray:none;stroke-dashoffset:0"
       id="path1108"
       d="m 96.062423,27.443877 c 0.47021,-0.189077 0.999048,-0.31823 1.368753,-0.681051 0.01826,-0.08387 0.06565,-0.166476 0.05476,-0.251619 -0.02278,-0.178098 -0.211066,-0.418883 -0.303843,-0.55811 -0.211738,-0.317744 -0.388455,-0.632029 -0.549857,-0.97802 -0.337727,-0.774442 -0.230941,-1.350381 0.215342,-2.042624 0.278294,-0.270762 0.7024,-0.674586 1.142526,-0.56577 0.194763,0.04815 0.277464,0.230219 0.380667,0.374594 0.404098,1.004784 0.118219,2.087723 -0.179112,3.081837 -0.04601,0.123457 -0.08765,0.248627 -0.138012,0.370373 -0.06653,0.160842 -0.361201,0.530924 -0.142039,0.709716 0.05618,0.04583 0.1431,0.02339 0.214651,0.03508 0.370419,-0.04902 0.740955,-0.06849 1.105707,-0.150453 0.239776,-0.0554 0.161422,-0.3945 -0.07835,-0.339096 v 0 c -0.345371,0.08247 -0.69941,0.0904 -1.050446,0.142286 0.09449,0.131069 -0.05003,-0.08405 0.06073,0.207089 0.0065,0.01693 0.0071,-0.0358 0.0141,-0.05254 0.02281,-0.05473 0.04982,-0.107596 0.07497,-0.161279 0.189605,-0.404652 0.08776,-0.163909 0.272211,-0.661736 0.328411,-1.104783 0.62565,-2.301101 0.117562,-3.398437 -0.235743,-0.274437 -0.290658,-0.439282 -0.67274,-0.504885 -0.560123,-0.09617 -1.068808,0.36338 -1.416301,0.726775 -0.53222,0.850595 -0.622094,1.433586 -0.236638,2.376686 0.230028,0.489295 0.49172,1.001964 0.861091,1.401171 -0.263961,0.32599 -0.860768,0.410612 -1.225785,0.589841 -0.233466,0.07782 -0.12341,0.407993 0.110059,0.330171 z" />
    <path
       style="fill:#ff0000;stroke:#ff0000;stroke-width:0.264999;stroke-miterlimit:4;stroke-dasharray:none;stroke-dashoffset:0"
       id="path1110"
       d="m 100.08488,26.053765 c 0.0776,0.495309 0.0976,0.997793 0.12877,1.497676 0.0713,-0.0705 -0.0336,0.186896 0.023,0.173124 0.12046,-0.02932 0.25548,-0.05751 0.34189,-0.146417 0.0281,-0.02887 -0.014,-0.781603 -0.0176,-0.840733 -0.0223,-0.282476 -0.0519,-0.564317 -0.085,-0.84571 -0.007,-0.05895 -0.0179,-0.117501 -0.0217,-0.176733 -0.002,-0.02606 0.0307,-0.07176 0.005,-0.07815 -0.025,-0.0063 -0.008,0.05098 -0.0121,0.07647 -0.0566,0.02364 -0.14097,0.0168 -0.16988,0.07093 -0.0212,0.03963 0.048,0.076 0.0707,0.114735 0.0395,0.06724 0.0784,0.134826 0.11601,0.203149 0.16126,0.293112 0.31104,0.590618 0.47672,0.881461 0.15573,0.179218 0.45119,0.892043 0.65989,0.996214 0.0606,0.03023 0.13231,0.0286 0.19846,0.04289 0.065,-0.05374 0.14836,-0.09098 0.19511,-0.161211 0.17561,-0.263805 0.14111,-1.324755 0.14864,-1.660136 -0.0109,-0.385935 0.0735,-0.792756 -0.089,-1.156455 -0.10481,-0.222663 -0.4197,-0.07445 -0.3149,0.148215 v 0 c 0.15684,0.2993 0.0139,0.682431 0.0559,1.000445 -0.008,0.361583 -0.0138,0.723657 -0.0423,1.084395 -0.007,0.08853 -0.0169,0.176827 -0.0273,0.26502 -0.005,0.04091 -0.0355,0.08468 -0.0185,0.122198 0.0109,0.02397 0.0522,0.0065 0.0783,0.0098 0.0171,0.01627 0.0724,0.03855 0.0512,0.0488 -0.0294,0.01416 -0.085,-0.08675 -0.14849,-0.186653 -0.15219,-0.239527 -0.30105,-0.481185 -0.44477,-0.725895 -0.16606,-0.290923 -0.31506,-0.589284 -0.47716,-0.882234 -0.0135,-0.02433 -0.2093,-0.378911 -0.25691,-0.404405 -0.0927,-0.04962 -0.20707,-0.03641 -0.3106,-0.05462 -0.029,0.051 -0.0694,0.09702 -0.0869,0.152994 -0.0685,0.218736 0.14411,0.891479 0.10167,1.136227 0.0253,0.39724 0.0213,0.223427 0.019,0.608086 -2.7e-4,0.06616 -0.0553,0.159359 -0.002,0.198462 0.0909,0.06661 0.22485,0.02177 0.335,0.04561 0.009,0.0019 0.002,0.01844 0.003,0.02767 -0.003,-0.03638 -0.005,-0.07277 -0.008,-0.109148 -0.0324,-0.52093 -0.0523,-1.04502 -0.13848,-1.560453 -0.0597,-0.238747 -0.39733,-0.154337 -0.33764,0.08441 z" />
    <path
       style="fill:#000000;stroke:#000000;stroke-width:0.264999;stroke-miterlimit:4;stroke-dasharray:none;stroke-dashoffset:0"
       id="path1112"
       d="m 52.332527,9.8600314 c 0.526145,0.5420406 0.885669,1.1987806 1.2123,1.8725976 0.127198,0.284877 0.26271,0.568111 0.360976,0.864843 9.2e-5,-0.01516 0.01696,0.09095 -2.65e-4,-0.01167 0.02772,0.346925 0.518348,0.307719 0.490625,-0.0392 v 0 C 54.391057,12.510888 54.3855,12.475891 54.3728,12.44187 54.266766,12.125196 54.125214,11.821516 53.987681,11.517745 53.636573,10.794987 53.24607,10.092459 52.680607,9.5120006 52.434513,9.2659059 52.086483,9.6139367 52.332577,9.8600317 Z" />
    <path
       style="fill:#000000;stroke:#000000;stroke-width:0.264999;stroke-miterlimit:4;stroke-dasharray:none;stroke-dashoffset:0"
       id="path1114"
       d="M 48.589276,4.6564938 C 48.11087,4.105317 47.410896,3.7451363 46.665181,3.9211675 c -0.195056,0.046044 -0.373168,0.1463281 -0.55975,0.219492 -0.163989,0.1137685 -0.345313,0.2059202 -0.491963,0.3413049 -0.589783,0.5444767 -1.006724,1.4629217 -0.769382,2.2694439 0.05377,0.1827146 0.173603,0.3390643 0.260405,0.5085964 0.143391,0.1314801 0.262705,0.2954279 0.43017,0.3944405 0.900153,0.5322131 1.814516,0.093347 2.506343,-0.5163994 C 48.628339,6.4701131 48.724542,5.864127 48.353432,5.0644618 48.230914,4.8205834 48.078688,4.6452903 47.868231,4.4792169 47.585108,4.2768144 47.298869,4.6772107 47.581991,4.8796135 v 0 c 0.159317,0.086859 0.229783,0.2513402 0.3281,0.3986258 0.275762,0.5426662 0.217024,1.0312773 -0.198401,1.4940142 -0.481875,0.4456374 -1.183595,0.848012 -1.853819,0.5109977 C 45.734417,7.2211725 45.643016,7.10942 45.535587,7.0225043 45.467852,6.9115254 45.375869,6.812095 45.332377,6.6895678 45.041341,5.869697 45.644792,5.0211717 46.292971,4.5957198 c 0.14043,-0.061605 0.274113,-0.1417568 0.421293,-0.1848159 0.57,-0.1667595 1.10993,0.1234683 1.481259,0.5409038 0.20882,0.2784248 0.60257,-0.016888 0.393753,-0.2953139 z" />
    <path
       style="fill:#000000;stroke:#000000;stroke-width:0.264999;stroke-miterlimit:4;stroke-dasharray:none;stroke-dashoffset:0"
       id="path1116"
       d="m 46.104616,2.9348506 c 0.258107,0.9556536 0.518705,1.9107155 0.75578,2.8717841 0.183131,0.767748 0.261903,1.5525842 0.496035,2.30775 0.0353,0.1347332 0.08762,0.2422887 0.167593,0.3537439 0.23826,0.2536889 0.597029,-0.08326 0.35877,-0.3369492 v 0 c 0.0076,0.016383 0.02826,0.066422 0.02291,0.049152 -0.0223,-0.072114 -0.06675,-0.1363935 -0.0793,-0.2121249 C 47.593794,7.2229397 47.524616,6.4456068 47.338239,5.6886813 47.092253,4.6928026 46.83044,3.6999661 46.544841,2.7147366 46.389197,2.4034483 45.948967,2.6235623 46.104611,2.9348506 Z" />
    <path
       style="fill:#000000;stroke:#000000;stroke-width:0.264999;stroke-miterlimit:4;stroke-dasharray:none;stroke-dashoffset:0"
       id="path1118"
       d="m 46.443291,10.053109 c 0.586422,-0.1236647 1.171125,-0.2543074 1.760625,-0.3641254 0.280212,-0.035138 0.492392,-0.062829 0.718904,-0.224196 0.01839,-0.057964 0.03676,-0.115928 0.05513,-0.1738921 0.05878,-0.3430312 -0.426341,-0.4261575 -0.485121,-0.083126 v 0 c 0.01019,-0.0102 0.02037,-0.020399 0.03058,-0.0306 0.387954,-0.186564 -0.328041,0.055843 -0.409651,0.027952 -0.599308,0.1116811 -1.193642,0.2447477 -1.789843,0.3704941 -0.33764,0.08441 -0.218266,0.5619044 0.119372,0.4774944 z" />
    <path
       style="fill:#000000;stroke:#000000;stroke-width:0.264999;stroke-miterlimit:4;stroke-dasharray:none;stroke-dashoffset:0"
       id="path1120"
       d="m 45.15313,3.1992347 c 0.655084,-0.095725 1.313534,-0.156383 1.973752,-0.2020829 0.266237,-0.018751 0.532741,-0.032014 0.799467,-0.040885 0.347837,-0.011597 0.331438,-0.5035123 -0.0164,-0.4919167 v 0 c -0.272597,0.00911 -0.544975,0.022615 -0.817076,0.041788 -0.648721,0.044954 -1.297014,0.099124 -1.939745,0.200907 -0.34803,0 -0.34803,0.4921898 0,0.4921898 z" />
    <path
       style="fill:#000000;stroke:#000000;stroke-width:0.264999;stroke-miterlimit:4;stroke-dasharray:none;stroke-dashoffset:0"
       id="path1122"
       d="m 49.44886,6.3127656 c -0.404453,0.4402953 -0.559644,0.9350598 -0.419381,1.5152111 0.322633,0.6390997 0.824368,0.7367521 1.406888,0.3590152 C 50.926875,7.7128713 50.845703,7.1203041 50.580514,6.5522715 50.432578,6.2996889 50.524245,6.4156547 50.301413,6.2076533 50.032395,5.9868471 49.720129,6.3672944 49.989147,6.5881006 v 0 c 0.110188,0.054675 0.04783,0.010475 0.147063,0.1759339 0.166836,0.3407492 0.290661,0.6998504 0.01556,1.0213964 C 49.9179,7.9844671 49.669964,7.9825955 49.504361,7.6985849 49.374464,7.302538 49.531624,6.9658457 49.796895,6.6607964 50.042989,6.4147017 49.694959,6.0666706 49.448865,6.3127656 Z" />
    <path
       style="fill:#000000;stroke:#000000;stroke-width:0.264999;stroke-miterlimit:4;stroke-dasharray:none;stroke-dashoffset:0"
       id="path1134"
       d="m 48.7859,76.283769 c -0.502285,0.764141 -1.184294,1.376482 -1.823784,2.021144 -0.245099,0.247084 0.104331,0.59371 0.349433,0.346626 v 0 c 0.655381,-0.660689 1.352637,-1.289921 1.868104,-2.072455 0.208819,-0.278426 -0.184934,-0.573741 -0.393753,-0.295315 z" />
    <path
       style="fill:#000000;stroke:#000000;stroke-width:0.264999;stroke-miterlimit:4;stroke-dasharray:none;stroke-dashoffset:0"
       id="path1136"
       d="m 43.213005,80.479749 c -0.577218,-0.329139 -1.290746,-0.396007 -1.909834,-0.134387 -0.1597,0.06749 -0.302903,0.168775 -0.454356,0.253161 -0.575466,0.485391 -1.226531,1.196901 -1.149916,2.019321 0.0141,0.151418 0.08126,0.293092 0.121891,0.439637 0.08669,0.122378 0.153292,0.261824 0.260069,0.367131 0.509548,0.502544 1.340499,0.641638 2.01562,0.480515 0.173765,-0.04147 0.334129,-0.126556 0.501192,-0.189834 0.887177,-0.545205 1.15946,-1.531934 1.020003,-2.516632 -0.0912,-0.357867 -0.301013,-0.543046 -0.581408,-0.755586 -0.281988,-0.203978 -0.57046,0.194815 -0.28847,0.398793 v 0 c 0.181713,0.121962 0.312822,0.213127 0.383511,0.43229 0.129447,0.745127 -0.06584,1.540245 -0.714595,1.983419 -0.127225,0.05307 -0.248555,0.123407 -0.381672,0.159211 -0.621173,0.16706 -1.344311,0.0131 -1.744517,-0.506278 -0.03333,-0.08983 -0.08389,-0.175043 -0.09998,-0.269496 -0.108712,-0.638257 0.482508,-1.229606 0.902486,-1.615163 0.613209,-0.361571 1.190707,-0.502568 1.846961,-0.136575 0.289579,0.193053 0.562597,-0.216474 0.273015,-0.409527 z" />
    <path
       style="fill:#000000;stroke:#000000;stroke-width:0.264999;stroke-miterlimit:4;stroke-dasharray:none;stroke-dashoffset:0"
       id="path1138"
       d="m 41.688238,79.876755 c 0.0172,0.922703 0.124859,1.84204 0.250716,2.755628 0.101687,0.682892 0.173064,1.369422 0.225835,2.057622 0.02661,0.347014 0.517361,0.30938 0.490749,-0.03763 v 0 c -0.05353,-0.698077 -0.125986,-1.394466 -0.229002,-2.087174 -0.122843,-0.891339 -0.228721,-1.788252 -0.246107,-2.688442 0,-0.34803 -0.492191,-0.34803 -0.492191,0 z" />
    <path
       style="fill:#000000;stroke:#000000;stroke-width:0.264999;stroke-miterlimit:4;stroke-dasharray:none;stroke-dashoffset:0"
       id="path1140"
       d="m 41.865675,85.874598 c 0.535985,-0.09857 1.081048,-0.138915 1.623767,-0.182412 0.182231,-0.0068 0.352401,-0.02006 0.527113,-0.07062 0.327202,-0.118595 0.159486,-0.581327 -0.167717,-0.462733 v 0 c -0.118716,0.02146 -0.268716,0.03922 -0.398729,0.04274 -0.569619,0.04568 -1.141953,0.0878 -1.703809,0.195529 -0.33764,0.08441 -0.218265,0.561907 0.119375,0.477496 z" />
    <path
       style="fill:#000000;stroke:#000000;stroke-width:0.264999;stroke-miterlimit:4;stroke-dasharray:none;stroke-dashoffset:0"
       id="path1142"
       d="m 41.343234,79.759008 c 0.216564,0 0.433126,0 0.64969,0 0.34803,0 0.34803,-0.492191 0,-0.492191 v 0 c -0.216564,0 -0.433126,0 -0.64969,0 -0.34803,0 -0.34803,0.492191 0,0.492191 z" />
    <path
       style="fill:#000000;stroke:#000000;stroke-width:0.264999;stroke-miterlimit:4;stroke-dasharray:none;stroke-dashoffset:0"
       id="path1144"
       d="m 44.905015,85.467388 c 0.330243,-0.605285 0.55667,-1.260705 0.785138,-1.909421 0.01979,-0.04836 0.0396,-0.09673 0.0594,-0.14509 0.0057,-0.0044 0.02437,-0.01344 0.01717,-0.01307 -0.562588,0.02831 -0.42056,0.0209 -0.351565,0.545251 0.110422,0.481766 0.286967,1.221665 0.887987,1.300109 0.101833,0.01328 0.203854,-0.02508 0.305779,-0.03762 0.542946,-0.347604 0.736021,-0.965882 0.906404,-1.555268 0.03542,-0.146132 0.08007,-0.292926 0.08708,-0.444119 -0.164597,0.03367 -0.345366,0.0223 -0.493797,0.101002 -0.05136,0.02723 0.05053,1.010478 0.06905,1.10826 0.207886,0.587788 0.633648,0.605393 1.147223,0.410107 0.316876,-0.143933 0.113324,-0.592061 -0.203549,-0.448127 v 0 c -0.154752,0.102877 -0.393983,0.153455 -0.460309,-0.05477 -0.02395,-0.122735 -0.05686,-0.270616 -0.06429,-0.395621 -0.0093,-0.156424 0.02995,-0.597352 0.004,-0.612232 -0.146053,-0.08381 -0.326904,-0.08096 -0.490355,-0.121434 -0.01029,0.08771 -0.04045,0.224738 -0.06801,0.320673 -0.122606,0.427133 -0.268812,0.85091 -0.538057,1.210588 -0.374391,0.235619 -0.550794,-0.626478 -0.601377,-0.847262 -0.01334,-0.09638 -0.0051,-0.641477 -0.09467,-0.694172 -0.429408,-0.252563 -0.470879,-0.06641 -0.582366,0.209339 -0.214913,0.610414 -0.428456,1.225989 -0.730414,1.799878 -0.193053,0.289581 0.216474,0.562599 0.409524,0.273018 z" />
    <path
       style="fill:#000000;stroke:#000000;stroke-width:0.264999;stroke-miterlimit:4;stroke-dasharray:none;stroke-dashoffset:0"
       id="path1148"
       d="m 52.172136,18.082683 c -0.01984,0.904575 0.01439,1.805972 0.07055,2.708585 0.109204,1.569089 0.13915,3.141713 0.15965,4.713951 0.0565,1.951977 -0.05952,3.901583 -0.130432,5.85143 -0.0689,2.011807 -0.08616,4.024836 -0.09614,6.037638 -0.007,2.088616 -0.0055,4.177247 -0.0049,6.26587 -0.01654,1.845027 0.101372,3.687662 0.250404,5.525572 0.103679,1.702773 0.229571,3.403841 0.338714,5.106254 0.06437,1.727835 0.201539,3.451358 0.29373,5.177724 0.09028,1.610757 0.178326,3.223469 0.310219,4.831556 0.122002,1.330836 0.194561,2.664495 0.329567,3.994005 0.107244,0.967899 0.139354,1.940324 0.260199,2.906556 0.08906,0.614138 0.146696,1.231519 0.173908,1.8513 0.01257,0.371827 0.0158,0.743913 0.01545,1.115931 -0.0013,0.145933 -0.0071,-0.02506 0.194104,-0.205454 0.02048,-0.01836 0.06325,0.01241 0.08219,-0.0075 0.01468,-0.01548 -0.17009,-0.221745 -0.267174,-0.341019 -0.39774,-0.527259 -0.572122,-1.172514 -0.755933,-1.796481 -0.07242,-0.01786 -0.211471,-0.902195 -0.239572,-0.902396 -0.162944,-0.0011 -0.322213,0.04883 -0.48332,0.07325 0.07019,0.564504 0.37434,1.084511 0.607377,1.599131 0.224457,0.44804 0.436857,0.899721 0.698204,1.327809 0.162825,0.256092 0.271682,0.462915 0.615905,0.08214 0.02776,-0.03071 0.03588,-0.549617 0.036,-0.553657 -0.008,-0.80179 0.138795,-1.593061 0.290571,-2.377051 0.05898,-0.269523 0.07905,-0.541348 0.220771,-0.777928 0.177607,-0.299302 -0.245671,-0.550473 -0.423278,-0.251171 v 0 c -0.170426,0.28933 -0.220438,0.607367 -0.280718,0.935588 -0.156694,0.810066 -0.30652,1.627729 -0.299323,2.456082 -0.0071,0.249629 -0.01212,0.409411 -0.01005,0.409823 0.497769,0.09923 0.405495,0.02896 0.270124,-0.180448 -0.251138,-0.410639 -0.45343,-0.844746 -0.669838,-1.27422 -0.192966,-0.426122 -0.386829,-0.867413 -0.575794,-1.286981 -0.153927,-0.0072 -0.307708,-0.024 -0.46178,-0.02148 -0.01032,1.66e-4 0.0087,0.01884 0.01132,0.02882 0.01103,0.04164 0.01945,0.08392 0.02962,0.125775 0.05906,0.243282 0.123322,0.485288 0.191693,0.72612 0.202618,0.686657 0.402447,1.391994 0.846315,1.968002 0.15172,0.186386 0.737224,0.958588 0.86479,0.243756 2.65e-4,-0.379394 -0.003,-0.75886 -0.01593,-1.138055 -0.02799,-0.632963 -0.08633,-1.263552 -0.177245,-1.890776 -0.120621,-0.962369 -0.151101,-1.931146 -0.258903,-2.895137 -0.134702,-1.326359 -0.206801,-2.65689 -0.328702,-3.984564 -0.131852,-1.60338 -0.219083,-3.211468 -0.309269,-4.817523 -0.09233,-1.728118 -0.229529,-3.453389 -0.294034,-5.182973 -0.10941,-1.705173 -0.235344,-3.409005 -0.339317,-5.114533 -0.147979,-1.82472 -0.265359,-3.654121 -0.248793,-5.485916 -5.3e-4,-2.087769 -0.0021,-4.175546 0.0049,-6.263307 0.0099,-2.007653 0.02712,-4.015531 0.09582,-6.022194 0.07119,-1.95794 0.187391,-3.915653 0.130715,-5.875734 -0.02064,-1.580295 -0.05085,-3.160975 -0.160557,-4.738107 -0.05558,-0.892446 -0.08946,-1.783604 -0.0696,-2.678008 0,-0.348032 -0.492188,-0.348032 -0.492188,0 z" />
    <path
       style="fill:#000000;stroke:#000000;stroke-width:0.264999;stroke-miterlimit:4;stroke-dasharray:none;stroke-dashoffset:0"
       id="path1150"
       d="m 51.392579,18.266817 c -0.396068,0.875633 -0.736746,1.774424 -1.106191,2.66111 -0.02698,0.06428 -0.144225,0.163629 -0.08093,0.192836 0.161269,0.07441 0.372227,0.09191 0.532601,0.01558 0.112287,-0.05344 0.100135,-0.227663 0.151234,-0.341034 0.236098,-0.523837 0.467008,-1.049754 0.705617,-1.572466 0.181591,-0.226041 0.24017,-0.8473 0.578077,-0.955688 0.0258,-0.0083 0.02262,0.04944 0.03751,0.07207 0.03202,0.04871 0.06721,0.0953 0.102849,0.141433 0.07428,0.09616 0.151233,0.190235 0.226848,0.285353 0.45425,0.601167 0.20678,0.294494 0.748141,0.91537 0.228974,0.262101 0.599642,-0.06172 0.370666,-0.323817 v 0 c -0.524095,-0.598704 -0.278831,-0.296578 -0.738585,-0.904096 -0.184665,-0.218959 -0.386151,-0.532867 -0.697558,-0.606277 -0.635351,-0.149778 -0.869796,0.789899 -1.075703,1.171289 -0.239273,0.524355 -0.470963,1.051853 -0.707795,1.577303 -0.05074,0.112573 -0.186446,0.220609 -0.150161,0.338636 0.05174,0.168282 0.206912,0.310753 0.37011,0.3768 0.06503,0.02632 0.05429,-0.129372 0.08144,-0.194058 0.370109,-0.88893 0.7122,-1.789631 1.108823,-2.667555 0.129257,-0.323139 -0.327731,-0.505934 -0.456985,-0.182795 z" />
    <path
       style="fill:#000000;stroke:#000000;stroke-width:0.264999;stroke-miterlimit:4;stroke-dasharray:none;stroke-dashoffset:0"
       id="path1152"
       d="m 46.128326,43.047311 c -0.531636,-0.580057 -1.25648,-1.212048 -2.112828,-1.093129 -0.174167,0.02418 -0.332383,0.114888 -0.498573,0.172331 -0.140203,0.145304 -0.308814,0.267769 -0.420608,0.435915 -0.455541,0.685162 -0.460304,1.688856 -0.181324,2.43841 0.05736,0.154112 0.151146,0.29209 0.226719,0.438137 0.09946,0.09523 0.179014,0.217024 0.298368,0.285686 0.833239,0.479349 1.441434,-0.659759 1.762064,-1.216498 0.574418,-1.261782 0.687567,-2.655523 0.779473,-4.020841 0.04979,-0.678249 0.03227,-1.369145 -0.138269,-2.030408 -0.08206,-0.250073 -0.08278,-0.337253 -0.541438,-0.0094 -0.01796,0.01283 -0.02328,0.734208 -0.02381,0.789276 -0.125566,0.96914 -0.158364,1.937346 -0.129712,2.912991 0.104023,0.945962 0.106984,1.934925 0.478369,2.825012 0.272801,0.325512 0.08611,0.198676 0.619548,0.273198 0.3473,-0.02254 0.315421,-0.513696 -0.03188,-0.491156 v 0 c -0.06778,0.126036 -0.02302,0.116332 -0.13529,0.02405 -0.36541,-0.822949 -0.319664,-1.769851 -0.438774,-2.645624 -0.0288,-0.969452 0.0087,-1.930403 0.129902,-2.893642 0.0019,-0.200655 0.02527,-0.699545 0.01548,-0.70381 -0.138361,-0.06033 -0.300016,-0.03642 -0.450842,-0.04241 -0.0305,-0.0013 0.127633,0.122545 0.03218,0.08573 0.160951,0.608923 0.166727,1.248862 0.123447,1.873247 -0.08645,1.291019 -0.187479,2.61053 -0.71555,3.809304 -0.105429,0.185434 -0.659019,1.238269 -1.007854,1.093187 -0.07472,-0.03108 -0.127471,-0.09975 -0.191206,-0.149624 -0.46935,-0.845598 -0.517943,-1.843426 0.11866,-2.621698 0.102238,-0.04645 0.196673,-0.116949 0.306711,-0.139354 0.697187,-0.141962 1.299673,0.442397 1.733282,0.896459 0.208817,0.278424 0.60257,-0.01688 0.393751,-0.295315 z" />
    <path
       style="fill:#000000;stroke:#000000;stroke-width:0.264999;stroke-miterlimit:4;stroke-dasharray:none;stroke-dashoffset:0"
       id="path1154"
       d="m 52.04379,80.965248 c 0.993439,0 1.986875,0 2.980314,0 1.435939,-0.05578 2.870134,-0.146624 4.306128,-0.201676 1.065805,-0.04083 2.132478,-0.04281 3.198892,-0.04544 1.228545,-0.0016 2.45709,-2.65e-4 3.685632,2.62e-4 0.938052,5.29e-4 1.876105,5.29e-4 2.814156,7.94e-4 0.984086,5.2e-5 1.96817,4.4e-5 2.952256,4.2e-5 0.623411,-3e-6 1.246822,-8e-6 1.870233,-8e-6 0.281927,-3e-6 0.563851,-3e-6 0.845775,-3e-6 0.113012,0 0.226021,0 0.339029,0 0.220816,0.0055 0.273828,-0.228351 0.273069,-0.388226 0.0024,-0.346498 -0.241057,-0.615497 -0.451795,-0.863301 -0.274513,-0.286697 -0.507137,-0.610285 -0.72794,-0.939228 -0.02643,0.07129 -0.04256,-0.137231 -0.06659,-0.10386 -0.355227,0.493229 -0.212421,0.371624 0.147055,0.654463 0.380754,0.344549 0.639776,0.786363 0.901425,1.221409 0.119915,0.181476 0.216673,0.376378 0.304718,0.574816 0.02154,0.04853 0.07098,0.182951 0.02445,0.157374 -0.492334,0.200496 -0.986542,0.407704 -1.470078,0.631322 -0.315775,0.146328 -0.108839,0.5929 0.206936,0.446574 v 0 c 0.574389,-0.266723 1.271312,-0.446029 1.719635,-0.893871 0.01961,-0.07516 0.05322,-0.148002 0.05879,-0.225475 0.02397,-0.333258 -0.303914,-0.661212 -0.422672,-0.944414 -0.292518,-0.486368 -0.587508,-0.976741 -1.019654,-1.355169 -0.06633,-0.05177 -1.338845,-0.993736 -0.792607,0.111249 0.231484,0.344485 0.475406,0.683289 0.762167,0.984345 0.13131,0.153199 0.327069,0.332325 0.333972,0.546264 0.0016,0.311814 0.331836,-0.138663 0.219115,-0.10646 -0.113009,0 -0.226018,0 -0.339029,0 -0.281924,0 -0.563851,0 -0.845775,0 -0.623411,2e-6 -1.246822,5e-6 -1.870236,8e-6 -0.984068,5e-6 -1.968138,1.3e-5 -2.952208,-4.3e-5 -0.93799,-8.4e-5 -1.875978,-2.64e-4 -2.813968,-7.93e-4 -1.229027,-5.3e-4 -2.458053,-0.0019 -3.68708,-2.62e-4 -1.072298,0.0026 -2.144855,0.0047 -3.216539,0.0458 -1.429711,0.05484 -2.857656,0.144675 -4.287266,0.201314 -0.993439,0 -1.986876,0 -2.980315,0 -0.34803,0 -0.34803,0.492188 0,0.492188 z" />
    <path
       style="fill:#000000;stroke:#000000;stroke-width:0.264999;stroke-miterlimit:4;stroke-dasharray:none;stroke-dashoffset:0"
       id="path1156"
       d="m 52.399943,80.634299 c 0.608705,-0.384934 1.167833,-0.839015 1.752232,-1.258549 0.282689,-0.203006 -0.0044,-0.602789 -0.287097,-0.39978 v 0 c -0.563192,0.404585 -1.103902,0.839227 -1.68525,1.2181 -0.311288,0.155646 -0.09118,0.595873 0.220115,0.440229 z" />
    <path
       style="fill:#000000;stroke:#000000;stroke-width:0.264999;stroke-miterlimit:4;stroke-dasharray:none;stroke-dashoffset:0"
       id="path1158"
       d="m 52.425922,81.490332 c 0.512302,0.251714 1.012402,0.526246 1.52269,0.782032 0.31114,0.155943 0.531675,-0.284075 0.220536,-0.440018 v 0 c -0.510453,-0.255805 -1.010603,-0.530588 -1.523111,-0.782241 -0.311288,-0.155644 -0.531402,0.284583 -0.220115,0.440227 z" />
    <path
       style="fill:#000000;stroke:#000000;stroke-width:0.264999;stroke-miterlimit:4;stroke-dasharray:none;stroke-dashoffset:0"
       id="path1160"
       d="m 61.252994,83.771218 c -0.194742,0.937233 -0.384623,1.875438 -0.568979,2.814791 0.04613,0.170939 -0.183356,0.541969 -0.137731,0.713975 0.0217,0.08184 0.05715,0.159398 0.08572,0.239096 0.10691,0.01937 0.212167,0.05377 0.320728,0.0581 0.296897,0.01185 0.665766,-0.140237 0.954643,-0.190461 0.367358,-0.06387 0.599797,-0.08928 0.970677,-0.136699 0.561911,-0.06969 1.126926,-0.105707 1.691081,-0.150302 0.346943,-0.02749 0.308063,-0.518147 -0.03888,-0.490654 v 0 c -0.572027,0.04545 -1.144971,0.08172 -1.714706,0.152752 -0.58632,0.07516 -1.158873,0.17707 -1.737728,0.293669 -0.06985,0.01408 -0.171598,-0.0227 -0.210548,0.03698 -0.02848,0.04363 0.08405,0.06161 0.12608,0.09242 0.01222,0.06201 0.01675,0.126039 0.03664,0.186031 0.01378,0.04159 0.01622,-0.08612 0.02447,-0.129159 0.03706,-0.193744 0.07472,-0.387371 0.112533,-0.580969 0.18424,-0.938771 0.374015,-1.876396 0.568634,-2.813053 0.06826,-0.341273 -0.414379,-0.437798 -0.482631,-0.09652 z" />
    <text
       xml:space="preserve"
       style="font-style:normal;font-variant:normal;font-weight:normal;font-stretch:normal;font-size:4.23333px;line-height:1.25;font-family:sans-serif;-inkscape-font-specification:'sans-serif, Normal';font-variant-ligatures:normal;font-variant-caps:normal;font-variant-numeric:normal;font-variant-east-asian:normal;fill:#000000;fill-opacity:1;stroke:none;stroke-width:0.264583"
       x="7.4033399"
       y="37.835552"
       id="text1202"><tspan
         sodipodi:role="line"
         id="tspan1200"
         x="7.4033399"
         y="37.835552"
         style="font-style:normal;font-variant:normal;font-weight:normal;font-stretch:normal;font-size:4.23333px;font-family:sans-serif;-inkscape-font-specification:'sans-serif, Normal';font-variant-ligatures:normal;font-variant-caps:normal;font-variant-numeric:normal;font-variant-east-asian:normal;stroke-width:0.264583">Elektrolyt</tspan></text>
  </g>
</svg>
