<?xml version="1.0" encoding="utf-8" standalone="no"?>
<!DOCTYPE svg PUBLIC "-//W3C//DTD SVG 1.1//EN"
  "http://www.w3.org/Graphics/SVG/1.1/DTD/svg11.dtd">
<!-- Created with matplotlib (https://matplotlib.org/) -->
<svg height="345.6pt" version="1.1" viewBox="0 0 460.8 345.6" width="460.8pt" xmlns="http://www.w3.org/2000/svg" xmlns:xlink="http://www.w3.org/1999/xlink">
 <metadata>
  <rdf:RDF xmlns:cc="http://creativecommons.org/ns#" xmlns:dc="http://purl.org/dc/elements/1.1/" xmlns:rdf="http://www.w3.org/1999/02/22-rdf-syntax-ns#">
   <cc:Work>
    <dc:type rdf:resource="http://purl.org/dc/dcmitype/StillImage"/>
    <dc:date>2021-01-17T17:41:13.554679</dc:date>
    <dc:format>image/svg+xml</dc:format>
    <dc:creator>
     <cc:Agent>
      <dc:title>Matplotlib v3.3.3, https://matplotlib.org/</dc:title>
     </cc:Agent>
    </dc:creator>
   </cc:Work>
  </rdf:RDF>
 </metadata>
 <defs>
  <style type="text/css">*{stroke-linecap:butt;stroke-linejoin:round;}</style>
 </defs>
 <g id="figure_1">
  <g id="patch_1">
   <path d="M 0 345.6 
L 460.8 345.6 
L 460.8 0 
L 0 0 
z
" style="fill:#ffffff;"/>
  </g>
  <g id="axes_1">
   <g id="patch_2">
    <path d="M 58.659096 297.448 
L 450 297.448 
L 450 10.8 
L 58.659096 10.8 
z
" style="fill:#ffffff;"/>
   </g>
   <g id="matplotlib.axis_1">
    <g id="xtick_1">
     <g id="line2d_1">
      <defs>
       <path d="M 0 0 
L 0 3.5 
" id="m18d1976d35" style="stroke:#000000;stroke-width:0.8;"/>
      </defs>
      <g>
       <use style="stroke:#000000;stroke-width:0.8;" x="76.447319" xlink:href="#m18d1976d35" y="297.448"/>
      </g>
     </g>
     <g id="text_1">
      <!-- $\mathdefault{10^{-1}}$ -->
      <g transform="translate(64.697319 312.046437)scale(0.1 -0.1)">
       <defs>
        <path d="M 12.40625 8.296875 
L 28.515625 8.296875 
L 28.515625 63.921875 
L 10.984375 60.40625 
L 10.984375 69.390625 
L 28.421875 72.90625 
L 38.28125 72.90625 
L 38.28125 8.296875 
L 54.390625 8.296875 
L 54.390625 0 
L 12.40625 0 
z
" id="DejaVuSans-49"/>
        <path d="M 31.78125 66.40625 
Q 24.171875 66.40625 20.328125 58.90625 
Q 16.5 51.421875 16.5 36.375 
Q 16.5 21.390625 20.328125 13.890625 
Q 24.171875 6.390625 31.78125 6.390625 
Q 39.453125 6.390625 43.28125 13.890625 
Q 47.125 21.390625 47.125 36.375 
Q 47.125 51.421875 43.28125 58.90625 
Q 39.453125 66.40625 31.78125 66.40625 
z
M 31.78125 74.21875 
Q 44.046875 74.21875 50.515625 64.515625 
Q 56.984375 54.828125 56.984375 36.375 
Q 56.984375 17.96875 50.515625 8.265625 
Q 44.046875 -1.421875 31.78125 -1.421875 
Q 19.53125 -1.421875 13.0625 8.265625 
Q 6.59375 17.96875 6.59375 36.375 
Q 6.59375 54.828125 13.0625 64.515625 
Q 19.53125 74.21875 31.78125 74.21875 
z
" id="DejaVuSans-48"/>
        <path d="M 10.59375 35.5 
L 73.1875 35.5 
L 73.1875 27.203125 
L 10.59375 27.203125 
z
" id="DejaVuSans-8722"/>
       </defs>
       <use transform="translate(0 0.684375)" xlink:href="#DejaVuSans-49"/>
       <use transform="translate(63.623047 0.684375)" xlink:href="#DejaVuSans-48"/>
       <use transform="translate(128.203125 38.965625)scale(0.7)" xlink:href="#DejaVuSans-8722"/>
       <use transform="translate(186.855469 38.965625)scale(0.7)" xlink:href="#DejaVuSans-49"/>
      </g>
     </g>
    </g>
    <g id="xtick_2">
     <g id="line2d_2">
      <g>
       <use style="stroke:#000000;stroke-width:0.8;" x="254.329548" xlink:href="#m18d1976d35" y="297.448"/>
      </g>
     </g>
     <g id="text_2">
      <!-- $\mathdefault{10^{0}}$ -->
      <g transform="translate(245.529548 312.046437)scale(0.1 -0.1)">
       <use transform="translate(0 0.765625)" xlink:href="#DejaVuSans-49"/>
       <use transform="translate(63.623047 0.765625)" xlink:href="#DejaVuSans-48"/>
       <use transform="translate(128.203125 39.046875)scale(0.7)" xlink:href="#DejaVuSans-48"/>
      </g>
     </g>
    </g>
    <g id="xtick_3">
     <g id="line2d_3">
      <g>
       <use style="stroke:#000000;stroke-width:0.8;" x="432.211777" xlink:href="#m18d1976d35" y="297.448"/>
      </g>
     </g>
     <g id="text_3">
      <!-- $\mathdefault{10^{1}}$ -->
      <g transform="translate(423.411777 312.046437)scale(0.1 -0.1)">
       <use transform="translate(0 0.684375)" xlink:href="#DejaVuSans-49"/>
       <use transform="translate(63.623047 0.684375)" xlink:href="#DejaVuSans-48"/>
       <use transform="translate(128.203125 38.965625)scale(0.7)" xlink:href="#DejaVuSans-49"/>
      </g>
     </g>
    </g>
    <g id="xtick_4">
     <g id="line2d_4">
      <defs>
       <path d="M 0 0 
L 0 2 
" id="m27ddcbd805" style="stroke:#000000;stroke-width:0.6;"/>
      </defs>
      <g>
       <use style="stroke:#000000;stroke-width:0.6;" x="59.20875" xlink:href="#m27ddcbd805" y="297.448"/>
      </g>
     </g>
    </g>
    <g id="xtick_5">
     <g id="line2d_5">
      <g>
       <use style="stroke:#000000;stroke-width:0.6;" x="68.307875" xlink:href="#m27ddcbd805" y="297.448"/>
      </g>
     </g>
    </g>
    <g id="xtick_6">
     <g id="line2d_6">
      <g>
       <use style="stroke:#000000;stroke-width:0.6;" x="129.995206" xlink:href="#m27ddcbd805" y="297.448"/>
      </g>
     </g>
    </g>
    <g id="xtick_7">
     <g id="line2d_7">
      <g>
       <use style="stroke:#000000;stroke-width:0.6;" x="161.318711" xlink:href="#m27ddcbd805" y="297.448"/>
      </g>
     </g>
    </g>
    <g id="xtick_8">
     <g id="line2d_8">
      <g>
       <use style="stroke:#000000;stroke-width:0.6;" x="183.543092" xlink:href="#m27ddcbd805" y="297.448"/>
      </g>
     </g>
    </g>
    <g id="xtick_9">
     <g id="line2d_9">
      <g>
       <use style="stroke:#000000;stroke-width:0.6;" x="200.781661" xlink:href="#m27ddcbd805" y="297.448"/>
      </g>
     </g>
    </g>
    <g id="xtick_10">
     <g id="line2d_10">
      <g>
       <use style="stroke:#000000;stroke-width:0.6;" x="214.866598" xlink:href="#m27ddcbd805" y="297.448"/>
      </g>
     </g>
    </g>
    <g id="xtick_11">
     <g id="line2d_11">
      <g>
       <use style="stroke:#000000;stroke-width:0.6;" x="226.775242" xlink:href="#m27ddcbd805" y="297.448"/>
      </g>
     </g>
    </g>
    <g id="xtick_12">
     <g id="line2d_12">
      <g>
       <use style="stroke:#000000;stroke-width:0.6;" x="237.090979" xlink:href="#m27ddcbd805" y="297.448"/>
      </g>
     </g>
    </g>
    <g id="xtick_13">
     <g id="line2d_13">
      <g>
       <use style="stroke:#000000;stroke-width:0.6;" x="246.190104" xlink:href="#m27ddcbd805" y="297.448"/>
      </g>
     </g>
    </g>
    <g id="xtick_14">
     <g id="line2d_14">
      <g>
       <use style="stroke:#000000;stroke-width:0.6;" x="307.877435" xlink:href="#m27ddcbd805" y="297.448"/>
      </g>
     </g>
    </g>
    <g id="xtick_15">
     <g id="line2d_15">
      <g>
       <use style="stroke:#000000;stroke-width:0.6;" x="339.20094" xlink:href="#m27ddcbd805" y="297.448"/>
      </g>
     </g>
    </g>
    <g id="xtick_16">
     <g id="line2d_16">
      <g>
       <use style="stroke:#000000;stroke-width:0.6;" x="361.425321" xlink:href="#m27ddcbd805" y="297.448"/>
      </g>
     </g>
    </g>
    <g id="xtick_17">
     <g id="line2d_17">
      <g>
       <use style="stroke:#000000;stroke-width:0.6;" x="378.66389" xlink:href="#m27ddcbd805" y="297.448"/>
      </g>
     </g>
    </g>
    <g id="xtick_18">
     <g id="line2d_18">
      <g>
       <use style="stroke:#000000;stroke-width:0.6;" x="392.748827" xlink:href="#m27ddcbd805" y="297.448"/>
      </g>
     </g>
    </g>
    <g id="xtick_19">
     <g id="line2d_19">
      <g>
       <use style="stroke:#000000;stroke-width:0.6;" x="404.657471" xlink:href="#m27ddcbd805" y="297.448"/>
      </g>
     </g>
    </g>
    <g id="xtick_20">
     <g id="line2d_20">
      <g>
       <use style="stroke:#000000;stroke-width:0.6;" x="414.973208" xlink:href="#m27ddcbd805" y="297.448"/>
      </g>
     </g>
    </g>
    <g id="xtick_21">
     <g id="line2d_21">
      <g>
       <use style="stroke:#000000;stroke-width:0.6;" x="424.072333" xlink:href="#m27ddcbd805" y="297.448"/>
      </g>
     </g>
    </g>
    <g id="text_4">
     <!-- Aspektverhältnis $d/L$ -->
     <g transform="translate(203.079548 325.726125)scale(0.1 -0.1)">
      <defs>
       <path d="M 34.1875 63.1875 
L 20.796875 26.90625 
L 47.609375 26.90625 
z
M 28.609375 72.90625 
L 39.796875 72.90625 
L 67.578125 0 
L 57.328125 0 
L 50.6875 18.703125 
L 17.828125 18.703125 
L 11.1875 0 
L 0.78125 0 
z
" id="DejaVuSans-65"/>
       <path d="M 44.28125 53.078125 
L 44.28125 44.578125 
Q 40.484375 46.53125 36.375 47.5 
Q 32.28125 48.484375 27.875 48.484375 
Q 21.1875 48.484375 17.84375 46.4375 
Q 14.5 44.390625 14.5 40.28125 
Q 14.5 37.15625 16.890625 35.375 
Q 19.28125 33.59375 26.515625 31.984375 
L 29.59375 31.296875 
Q 39.15625 29.25 43.1875 25.515625 
Q 47.21875 21.78125 47.21875 15.09375 
Q 47.21875 7.46875 41.1875 3.015625 
Q 35.15625 -1.421875 24.609375 -1.421875 
Q 20.21875 -1.421875 15.453125 -0.5625 
Q 10.6875 0.296875 5.421875 2 
L 5.421875 11.28125 
Q 10.40625 8.6875 15.234375 7.390625 
Q 20.0625 6.109375 24.8125 6.109375 
Q 31.15625 6.109375 34.5625 8.28125 
Q 37.984375 10.453125 37.984375 14.40625 
Q 37.984375 18.0625 35.515625 20.015625 
Q 33.0625 21.96875 24.703125 23.78125 
L 21.578125 24.515625 
Q 13.234375 26.265625 9.515625 29.90625 
Q 5.8125 33.546875 5.8125 39.890625 
Q 5.8125 47.609375 11.28125 51.796875 
Q 16.75 56 26.8125 56 
Q 31.78125 56 36.171875 55.265625 
Q 40.578125 54.546875 44.28125 53.078125 
z
" id="DejaVuSans-115"/>
       <path d="M 18.109375 8.203125 
L 18.109375 -20.796875 
L 9.078125 -20.796875 
L 9.078125 54.6875 
L 18.109375 54.6875 
L 18.109375 46.390625 
Q 20.953125 51.265625 25.265625 53.625 
Q 29.59375 56 35.59375 56 
Q 45.5625 56 51.78125 48.09375 
Q 58.015625 40.1875 58.015625 27.296875 
Q 58.015625 14.40625 51.78125 6.484375 
Q 45.5625 -1.421875 35.59375 -1.421875 
Q 29.59375 -1.421875 25.265625 0.953125 
Q 20.953125 3.328125 18.109375 8.203125 
z
M 48.6875 27.296875 
Q 48.6875 37.203125 44.609375 42.84375 
Q 40.53125 48.484375 33.40625 48.484375 
Q 26.265625 48.484375 22.1875 42.84375 
Q 18.109375 37.203125 18.109375 27.296875 
Q 18.109375 17.390625 22.1875 11.75 
Q 26.265625 6.109375 33.40625 6.109375 
Q 40.53125 6.109375 44.609375 11.75 
Q 48.6875 17.390625 48.6875 27.296875 
z
" id="DejaVuSans-112"/>
       <path d="M 56.203125 29.59375 
L 56.203125 25.203125 
L 14.890625 25.203125 
Q 15.484375 15.921875 20.484375 11.0625 
Q 25.484375 6.203125 34.421875 6.203125 
Q 39.59375 6.203125 44.453125 7.46875 
Q 49.3125 8.734375 54.109375 11.28125 
L 54.109375 2.78125 
Q 49.265625 0.734375 44.1875 -0.34375 
Q 39.109375 -1.421875 33.890625 -1.421875 
Q 20.796875 -1.421875 13.15625 6.1875 
Q 5.515625 13.8125 5.515625 26.8125 
Q 5.515625 40.234375 12.765625 48.109375 
Q 20.015625 56 32.328125 56 
Q 43.359375 56 49.78125 48.890625 
Q 56.203125 41.796875 56.203125 29.59375 
z
M 47.21875 32.234375 
Q 47.125 39.59375 43.09375 43.984375 
Q 39.0625 48.390625 32.421875 48.390625 
Q 24.90625 48.390625 20.390625 44.140625 
Q 15.875 39.890625 15.1875 32.171875 
z
" id="DejaVuSans-101"/>
       <path d="M 9.078125 75.984375 
L 18.109375 75.984375 
L 18.109375 31.109375 
L 44.921875 54.6875 
L 56.390625 54.6875 
L 27.390625 29.109375 
L 57.625 0 
L 45.90625 0 
L 18.109375 26.703125 
L 18.109375 0 
L 9.078125 0 
z
" id="DejaVuSans-107"/>
       <path d="M 18.3125 70.21875 
L 18.3125 54.6875 
L 36.8125 54.6875 
L 36.8125 47.703125 
L 18.3125 47.703125 
L 18.3125 18.015625 
Q 18.3125 11.328125 20.140625 9.421875 
Q 21.96875 7.515625 27.59375 7.515625 
L 36.8125 7.515625 
L 36.8125 0 
L 27.59375 0 
Q 17.1875 0 13.234375 3.875 
Q 9.28125 7.765625 9.28125 18.015625 
L 9.28125 47.703125 
L 2.6875 47.703125 
L 2.6875 54.6875 
L 9.28125 54.6875 
L 9.28125 70.21875 
z
" id="DejaVuSans-116"/>
       <path d="M 2.984375 54.6875 
L 12.5 54.6875 
L 29.59375 8.796875 
L 46.6875 54.6875 
L 56.203125 54.6875 
L 35.6875 0 
L 23.484375 0 
z
" id="DejaVuSans-118"/>
       <path d="M 41.109375 46.296875 
Q 39.59375 47.171875 37.8125 47.578125 
Q 36.03125 48 33.890625 48 
Q 26.265625 48 22.1875 43.046875 
Q 18.109375 38.09375 18.109375 28.8125 
L 18.109375 0 
L 9.078125 0 
L 9.078125 54.6875 
L 18.109375 54.6875 
L 18.109375 46.1875 
Q 20.953125 51.171875 25.484375 53.578125 
Q 30.03125 56 36.53125 56 
Q 37.453125 56 38.578125 55.875 
Q 39.703125 55.765625 41.0625 55.515625 
z
" id="DejaVuSans-114"/>
       <path d="M 54.890625 33.015625 
L 54.890625 0 
L 45.90625 0 
L 45.90625 32.71875 
Q 45.90625 40.484375 42.875 44.328125 
Q 39.84375 48.1875 33.796875 48.1875 
Q 26.515625 48.1875 22.3125 43.546875 
Q 18.109375 38.921875 18.109375 30.90625 
L 18.109375 0 
L 9.078125 0 
L 9.078125 75.984375 
L 18.109375 75.984375 
L 18.109375 46.1875 
Q 21.34375 51.125 25.703125 53.5625 
Q 30.078125 56 35.796875 56 
Q 45.21875 56 50.046875 50.171875 
Q 54.890625 44.34375 54.890625 33.015625 
z
" id="DejaVuSans-104"/>
       <path d="M 34.28125 27.484375 
Q 23.390625 27.484375 19.1875 25 
Q 14.984375 22.515625 14.984375 16.5 
Q 14.984375 11.71875 18.140625 8.90625 
Q 21.296875 6.109375 26.703125 6.109375 
Q 34.1875 6.109375 38.703125 11.40625 
Q 43.21875 16.703125 43.21875 25.484375 
L 43.21875 27.484375 
z
M 52.203125 31.203125 
L 52.203125 0 
L 43.21875 0 
L 43.21875 8.296875 
Q 40.140625 3.328125 35.546875 0.953125 
Q 30.953125 -1.421875 24.3125 -1.421875 
Q 15.921875 -1.421875 10.953125 3.296875 
Q 6 8.015625 6 15.921875 
Q 6 25.140625 12.171875 29.828125 
Q 18.359375 34.515625 30.609375 34.515625 
L 43.21875 34.515625 
L 43.21875 35.40625 
Q 43.21875 41.609375 39.140625 45 
Q 35.0625 48.390625 27.6875 48.390625 
Q 23 48.390625 18.546875 47.265625 
Q 14.109375 46.140625 10.015625 43.890625 
L 10.015625 52.203125 
Q 14.9375 54.109375 19.578125 55.046875 
Q 24.21875 56 28.609375 56 
Q 40.484375 56 46.34375 49.84375 
Q 52.203125 43.703125 52.203125 31.203125 
z
M 33.59375 75.78125 
L 43.5 75.78125 
L 43.5 65.921875 
L 33.59375 65.921875 
z
M 14.5 75.78125 
L 24.421875 75.78125 
L 24.421875 65.921875 
L 14.5 65.921875 
z
" id="DejaVuSans-228"/>
       <path d="M 9.421875 75.984375 
L 18.40625 75.984375 
L 18.40625 0 
L 9.421875 0 
z
" id="DejaVuSans-108"/>
       <path d="M 54.890625 33.015625 
L 54.890625 0 
L 45.90625 0 
L 45.90625 32.71875 
Q 45.90625 40.484375 42.875 44.328125 
Q 39.84375 48.1875 33.796875 48.1875 
Q 26.515625 48.1875 22.3125 43.546875 
Q 18.109375 38.921875 18.109375 30.90625 
L 18.109375 0 
L 9.078125 0 
L 9.078125 54.6875 
L 18.109375 54.6875 
L 18.109375 46.1875 
Q 21.34375 51.125 25.703125 53.5625 
Q 30.078125 56 35.796875 56 
Q 45.21875 56 50.046875 50.171875 
Q 54.890625 44.34375 54.890625 33.015625 
z
" id="DejaVuSans-110"/>
       <path d="M 9.421875 54.6875 
L 18.40625 54.6875 
L 18.40625 0 
L 9.421875 0 
z
M 9.421875 75.984375 
L 18.40625 75.984375 
L 18.40625 64.59375 
L 9.421875 64.59375 
z
" id="DejaVuSans-105"/>
       <path id="DejaVuSans-32"/>
       <path d="M 41.796875 8.203125 
Q 38.1875 3.46875 33.25 1.015625 
Q 28.328125 -1.421875 22.3125 -1.421875 
Q 14.109375 -1.421875 9.34375 4.171875 
Q 4.59375 9.765625 4.59375 19.484375 
Q 4.59375 27.59375 7.46875 34.9375 
Q 10.359375 42.28125 15.828125 48.09375 
Q 19.4375 51.953125 23.96875 53.96875 
Q 28.515625 56 33.5 56 
Q 38.765625 56 42.796875 53.453125 
Q 46.828125 50.921875 49.03125 46.1875 
L 54.890625 75.984375 
L 63.921875 75.984375 
L 49.125 0 
L 40.09375 0 
z
M 13.921875 21.09375 
Q 13.921875 14.015625 17.109375 10.0625 
Q 20.3125 6.109375 25.984375 6.109375 
Q 30.171875 6.109375 33.765625 8.125 
Q 37.359375 10.15625 40.09375 14.109375 
Q 42.96875 18.21875 44.625 23.578125 
Q 46.296875 28.953125 46.296875 34.1875 
Q 46.296875 40.96875 43.09375 44.765625 
Q 39.890625 48.578125 34.28125 48.578125 
Q 30.03125 48.578125 26.359375 46.578125 
Q 22.703125 44.578125 20.125 40.828125 
Q 17.28125 36.765625 15.59375 31.390625 
Q 13.921875 26.03125 13.921875 21.09375 
z
" id="DejaVuSans-Oblique-100"/>
       <path d="M 25.390625 72.90625 
L 33.6875 72.90625 
L 8.296875 -9.28125 
L 0 -9.28125 
z
" id="DejaVuSans-47"/>
       <path d="M 16.796875 72.90625 
L 26.703125 72.90625 
L 14.203125 8.203125 
L 49.703125 8.203125 
L 48.09375 0 
L 2.6875 0 
z
" id="DejaVuSans-Oblique-76"/>
      </defs>
      <use transform="translate(0 0.015625)" xlink:href="#DejaVuSans-65"/>
      <use transform="translate(68.408203 0.015625)" xlink:href="#DejaVuSans-115"/>
      <use transform="translate(120.507812 0.015625)" xlink:href="#DejaVuSans-112"/>
      <use transform="translate(183.984375 0.015625)" xlink:href="#DejaVuSans-101"/>
      <use transform="translate(245.507812 0.015625)" xlink:href="#DejaVuSans-107"/>
      <use transform="translate(303.417969 0.015625)" xlink:href="#DejaVuSans-116"/>
      <use transform="translate(342.626953 0.015625)" xlink:href="#DejaVuSans-118"/>
      <use transform="translate(401.806641 0.015625)" xlink:href="#DejaVuSans-101"/>
      <use transform="translate(463.330078 0.015625)" xlink:href="#DejaVuSans-114"/>
      <use transform="translate(504.443359 0.015625)" xlink:href="#DejaVuSans-104"/>
      <use transform="translate(567.822266 0.015625)" xlink:href="#DejaVuSans-228"/>
      <use transform="translate(629.101562 0.015625)" xlink:href="#DejaVuSans-108"/>
      <use transform="translate(656.884766 0.015625)" xlink:href="#DejaVuSans-116"/>
      <use transform="translate(696.09375 0.015625)" xlink:href="#DejaVuSans-110"/>
      <use transform="translate(759.472656 0.015625)" xlink:href="#DejaVuSans-105"/>
      <use transform="translate(787.255859 0.015625)" xlink:href="#DejaVuSans-115"/>
      <use transform="translate(839.355469 0.015625)" xlink:href="#DejaVuSans-32"/>
      <use transform="translate(871.142578 0.015625)" xlink:href="#DejaVuSans-Oblique-100"/>
      <use transform="translate(934.619141 0.015625)" xlink:href="#DejaVuSans-47"/>
      <use transform="translate(968.310547 0.015625)" xlink:href="#DejaVuSans-Oblique-76"/>
     </g>
    </g>
   </g>
   <g id="matplotlib.axis_2">
    <g id="ytick_1">
     <g id="line2d_22">
      <defs>
       <path d="M 0 0 
L -3.5 0 
" id="mcd5202442d" style="stroke:#000000;stroke-width:0.8;"/>
      </defs>
      <g>
       <use style="stroke:#000000;stroke-width:0.8;" x="58.659096" xlink:href="#mcd5202442d" y="284.418545"/>
      </g>
     </g>
     <g id="text_5">
      <!-- $\mathdefault{10^{-1}}$ -->
      <g transform="translate(28.159096 288.217764)scale(0.1 -0.1)">
       <use transform="translate(0 0.684375)" xlink:href="#DejaVuSans-49"/>
       <use transform="translate(63.623047 0.684375)" xlink:href="#DejaVuSans-48"/>
       <use transform="translate(128.203125 38.965625)scale(0.7)" xlink:href="#DejaVuSans-8722"/>
       <use transform="translate(186.855469 38.965625)scale(0.7)" xlink:href="#DejaVuSans-49"/>
      </g>
     </g>
    </g>
    <g id="ytick_2">
     <g id="line2d_23">
      <g>
       <use style="stroke:#000000;stroke-width:0.8;" x="58.659096" xlink:href="#mcd5202442d" y="154.124"/>
      </g>
     </g>
     <g id="text_6">
      <!-- $\mathdefault{10^{0}}$ -->
      <g transform="translate(34.059096 157.923219)scale(0.1 -0.1)">
       <use transform="translate(0 0.765625)" xlink:href="#DejaVuSans-49"/>
       <use transform="translate(63.623047 0.765625)" xlink:href="#DejaVuSans-48"/>
       <use transform="translate(128.203125 39.046875)scale(0.7)" xlink:href="#DejaVuSans-48"/>
      </g>
     </g>
    </g>
    <g id="ytick_3">
     <g id="line2d_24">
      <g>
       <use style="stroke:#000000;stroke-width:0.8;" x="58.659096" xlink:href="#mcd5202442d" y="23.829455"/>
      </g>
     </g>
     <g id="text_7">
      <!-- $\mathdefault{10^{1}}$ -->
      <g transform="translate(34.059096 27.628673)scale(0.1 -0.1)">
       <use transform="translate(0 0.684375)" xlink:href="#DejaVuSans-49"/>
       <use transform="translate(63.623047 0.684375)" xlink:href="#DejaVuSans-48"/>
       <use transform="translate(128.203125 38.965625)scale(0.7)" xlink:href="#DejaVuSans-49"/>
      </g>
     </g>
    </g>
    <g id="ytick_4">
     <g id="line2d_25">
      <defs>
       <path d="M 0 0 
L -2 0 
" id="m0074f4a2d5" style="stroke:#000000;stroke-width:0.6;"/>
      </defs>
      <g>
       <use style="stroke:#000000;stroke-width:0.6;" x="58.659096" xlink:href="#m0074f4a2d5" y="297.045392"/>
      </g>
     </g>
    </g>
    <g id="ytick_5">
     <g id="line2d_26">
      <g>
       <use style="stroke:#000000;stroke-width:0.6;" x="58.659096" xlink:href="#m0074f4a2d5" y="290.380497"/>
      </g>
     </g>
    </g>
    <g id="ytick_6">
     <g id="line2d_27">
      <g>
       <use style="stroke:#000000;stroke-width:0.6;" x="58.659096" xlink:href="#m0074f4a2d5" y="245.195979"/>
      </g>
     </g>
    </g>
    <g id="ytick_7">
     <g id="line2d_28">
      <g>
       <use style="stroke:#000000;stroke-width:0.6;" x="58.659096" xlink:href="#m0074f4a2d5" y="222.252248"/>
      </g>
     </g>
    </g>
    <g id="ytick_8">
     <g id="line2d_29">
      <g>
       <use style="stroke:#000000;stroke-width:0.6;" x="58.659096" xlink:href="#m0074f4a2d5" y="205.973413"/>
      </g>
     </g>
    </g>
    <g id="ytick_9">
     <g id="line2d_30">
      <g>
       <use style="stroke:#000000;stroke-width:0.6;" x="58.659096" xlink:href="#m0074f4a2d5" y="193.346566"/>
      </g>
     </g>
    </g>
    <g id="ytick_10">
     <g id="line2d_31">
      <g>
       <use style="stroke:#000000;stroke-width:0.6;" x="58.659096" xlink:href="#m0074f4a2d5" y="183.029682"/>
      </g>
     </g>
    </g>
    <g id="ytick_11">
     <g id="line2d_32">
      <g>
       <use style="stroke:#000000;stroke-width:0.6;" x="58.659096" xlink:href="#m0074f4a2d5" y="174.30688"/>
      </g>
     </g>
    </g>
    <g id="ytick_12">
     <g id="line2d_33">
      <g>
       <use style="stroke:#000000;stroke-width:0.6;" x="58.659096" xlink:href="#m0074f4a2d5" y="166.750846"/>
      </g>
     </g>
    </g>
    <g id="ytick_13">
     <g id="line2d_34">
      <g>
       <use style="stroke:#000000;stroke-width:0.6;" x="58.659096" xlink:href="#m0074f4a2d5" y="160.085951"/>
      </g>
     </g>
    </g>
    <g id="ytick_14">
     <g id="line2d_35">
      <g>
       <use style="stroke:#000000;stroke-width:0.6;" x="58.659096" xlink:href="#m0074f4a2d5" y="114.901434"/>
      </g>
     </g>
    </g>
    <g id="ytick_15">
     <g id="line2d_36">
      <g>
       <use style="stroke:#000000;stroke-width:0.6;" x="58.659096" xlink:href="#m0074f4a2d5" y="91.957703"/>
      </g>
     </g>
    </g>
    <g id="ytick_16">
     <g id="line2d_37">
      <g>
       <use style="stroke:#000000;stroke-width:0.6;" x="58.659096" xlink:href="#m0074f4a2d5" y="75.678867"/>
      </g>
     </g>
    </g>
    <g id="ytick_17">
     <g id="line2d_38">
      <g>
       <use style="stroke:#000000;stroke-width:0.6;" x="58.659096" xlink:href="#m0074f4a2d5" y="63.052021"/>
      </g>
     </g>
    </g>
    <g id="ytick_18">
     <g id="line2d_39">
      <g>
       <use style="stroke:#000000;stroke-width:0.6;" x="58.659096" xlink:href="#m0074f4a2d5" y="52.735137"/>
      </g>
     </g>
    </g>
    <g id="ytick_19">
     <g id="line2d_40">
      <g>
       <use style="stroke:#000000;stroke-width:0.6;" x="58.659096" xlink:href="#m0074f4a2d5" y="44.012335"/>
      </g>
     </g>
    </g>
    <g id="ytick_20">
     <g id="line2d_41">
      <g>
       <use style="stroke:#000000;stroke-width:0.6;" x="58.659096" xlink:href="#m0074f4a2d5" y="36.456301"/>
      </g>
     </g>
    </g>
    <g id="ytick_21">
     <g id="line2d_42">
      <g>
       <use style="stroke:#000000;stroke-width:0.6;" x="58.659096" xlink:href="#m0074f4a2d5" y="29.791406"/>
      </g>
     </g>
    </g>
    <g id="text_8">
     <!-- Entdimensionalisierte Kapazität $C/\varepsilon t$ -->
     <g transform="translate(22.059096 244.924)rotate(-90)scale(0.1 -0.1)">
      <defs>
       <path d="M 9.8125 72.90625 
L 55.90625 72.90625 
L 55.90625 64.59375 
L 19.671875 64.59375 
L 19.671875 43.015625 
L 54.390625 43.015625 
L 54.390625 34.71875 
L 19.671875 34.71875 
L 19.671875 8.296875 
L 56.78125 8.296875 
L 56.78125 0 
L 9.8125 0 
z
" id="DejaVuSans-69"/>
       <path d="M 45.40625 46.390625 
L 45.40625 75.984375 
L 54.390625 75.984375 
L 54.390625 0 
L 45.40625 0 
L 45.40625 8.203125 
Q 42.578125 3.328125 38.25 0.953125 
Q 33.9375 -1.421875 27.875 -1.421875 
Q 17.96875 -1.421875 11.734375 6.484375 
Q 5.515625 14.40625 5.515625 27.296875 
Q 5.515625 40.1875 11.734375 48.09375 
Q 17.96875 56 27.875 56 
Q 33.9375 56 38.25 53.625 
Q 42.578125 51.265625 45.40625 46.390625 
z
M 14.796875 27.296875 
Q 14.796875 17.390625 18.875 11.75 
Q 22.953125 6.109375 30.078125 6.109375 
Q 37.203125 6.109375 41.296875 11.75 
Q 45.40625 17.390625 45.40625 27.296875 
Q 45.40625 37.203125 41.296875 42.84375 
Q 37.203125 48.484375 30.078125 48.484375 
Q 22.953125 48.484375 18.875 42.84375 
Q 14.796875 37.203125 14.796875 27.296875 
z
" id="DejaVuSans-100"/>
       <path d="M 52 44.1875 
Q 55.375 50.25 60.0625 53.125 
Q 64.75 56 71.09375 56 
Q 79.640625 56 84.28125 50.015625 
Q 88.921875 44.046875 88.921875 33.015625 
L 88.921875 0 
L 79.890625 0 
L 79.890625 32.71875 
Q 79.890625 40.578125 77.09375 44.375 
Q 74.3125 48.1875 68.609375 48.1875 
Q 61.625 48.1875 57.5625 43.546875 
Q 53.515625 38.921875 53.515625 30.90625 
L 53.515625 0 
L 44.484375 0 
L 44.484375 32.71875 
Q 44.484375 40.625 41.703125 44.40625 
Q 38.921875 48.1875 33.109375 48.1875 
Q 26.21875 48.1875 22.15625 43.53125 
Q 18.109375 38.875 18.109375 30.90625 
L 18.109375 0 
L 9.078125 0 
L 9.078125 54.6875 
L 18.109375 54.6875 
L 18.109375 46.1875 
Q 21.1875 51.21875 25.484375 53.609375 
Q 29.78125 56 35.6875 56 
Q 41.65625 56 45.828125 52.96875 
Q 50 49.953125 52 44.1875 
z
" id="DejaVuSans-109"/>
       <path d="M 30.609375 48.390625 
Q 23.390625 48.390625 19.1875 42.75 
Q 14.984375 37.109375 14.984375 27.296875 
Q 14.984375 17.484375 19.15625 11.84375 
Q 23.34375 6.203125 30.609375 6.203125 
Q 37.796875 6.203125 41.984375 11.859375 
Q 46.1875 17.53125 46.1875 27.296875 
Q 46.1875 37.015625 41.984375 42.703125 
Q 37.796875 48.390625 30.609375 48.390625 
z
M 30.609375 56 
Q 42.328125 56 49.015625 48.375 
Q 55.71875 40.765625 55.71875 27.296875 
Q 55.71875 13.875 49.015625 6.21875 
Q 42.328125 -1.421875 30.609375 -1.421875 
Q 18.84375 -1.421875 12.171875 6.21875 
Q 5.515625 13.875 5.515625 27.296875 
Q 5.515625 40.765625 12.171875 48.375 
Q 18.84375 56 30.609375 56 
z
" id="DejaVuSans-111"/>
       <path d="M 34.28125 27.484375 
Q 23.390625 27.484375 19.1875 25 
Q 14.984375 22.515625 14.984375 16.5 
Q 14.984375 11.71875 18.140625 8.90625 
Q 21.296875 6.109375 26.703125 6.109375 
Q 34.1875 6.109375 38.703125 11.40625 
Q 43.21875 16.703125 43.21875 25.484375 
L 43.21875 27.484375 
z
M 52.203125 31.203125 
L 52.203125 0 
L 43.21875 0 
L 43.21875 8.296875 
Q 40.140625 3.328125 35.546875 0.953125 
Q 30.953125 -1.421875 24.3125 -1.421875 
Q 15.921875 -1.421875 10.953125 3.296875 
Q 6 8.015625 6 15.921875 
Q 6 25.140625 12.171875 29.828125 
Q 18.359375 34.515625 30.609375 34.515625 
L 43.21875 34.515625 
L 43.21875 35.40625 
Q 43.21875 41.609375 39.140625 45 
Q 35.0625 48.390625 27.6875 48.390625 
Q 23 48.390625 18.546875 47.265625 
Q 14.109375 46.140625 10.015625 43.890625 
L 10.015625 52.203125 
Q 14.9375 54.109375 19.578125 55.046875 
Q 24.21875 56 28.609375 56 
Q 40.484375 56 46.34375 49.84375 
Q 52.203125 43.703125 52.203125 31.203125 
z
" id="DejaVuSans-97"/>
       <path d="M 9.8125 72.90625 
L 19.671875 72.90625 
L 19.671875 42.09375 
L 52.390625 72.90625 
L 65.09375 72.90625 
L 28.90625 38.921875 
L 67.671875 0 
L 54.6875 0 
L 19.671875 35.109375 
L 19.671875 0 
L 9.8125 0 
z
" id="DejaVuSans-75"/>
       <path d="M 5.515625 54.6875 
L 48.1875 54.6875 
L 48.1875 46.484375 
L 14.40625 7.171875 
L 48.1875 7.171875 
L 48.1875 0 
L 4.296875 0 
L 4.296875 8.203125 
L 38.09375 47.515625 
L 5.515625 47.515625 
z
" id="DejaVuSans-122"/>
       <path d="M 69.484375 67.28125 
L 67.484375 56.890625 
Q 62.796875 61.625 57.546875 63.921875 
Q 52.296875 66.21875 46.1875 66.21875 
Q 37.84375 66.21875 31.515625 62.203125 
Q 25.203125 58.203125 20.609375 50 
Q 17.671875 44.734375 16.125 38.84375 
Q 14.59375 32.953125 14.59375 27 
Q 14.59375 17.046875 19.75 11.8125 
Q 24.90625 6.59375 34.71875 6.59375 
Q 41.5 6.59375 47.75 8.765625 
Q 54 10.9375 59.90625 15.28125 
L 57.625 3.609375 
Q 51.8125 1.125 45.875 -0.140625 
Q 39.9375 -1.421875 33.984375 -1.421875 
Q 19.96875 -1.421875 12.078125 6.1875 
Q 4.203125 13.8125 4.203125 27.390625 
Q 4.203125 36.078125 7.203125 44.46875 
Q 10.203125 52.875 15.828125 59.8125 
Q 21.78125 67.1875 29.421875 70.703125 
Q 37.0625 74.21875 47.21875 74.21875 
Q 53.46875 74.21875 59.0625 72.484375 
Q 64.65625 70.75 69.484375 67.28125 
z
" id="DejaVuSans-Oblique-67"/>
       <path d="M 19.734375 29.5 
Q 14.453125 30.671875 12.15625 33.84375 
Q 10.453125 36.078125 10.453125 39.109375 
Q 10.453125 47.40625 18.359375 52.25 
Q 24.609375 56.0625 34.1875 56.0625 
Q 37.890625 56.0625 41.9375 55.46875 
Q 46 54.890625 50.53125 53.71875 
L 48.96875 45.5625 
Q 44.484375 46.96875 40.71875 47.609375 
Q 36.859375 48.25 33.40625 48.25 
Q 27.59375 48.25 23.78125 46 
Q 19.1875 43.3125 19.1875 39.40625 
Q 19.1875 36.8125 21.578125 35.015625 
Q 24.421875 32.859375 30.078125 32.859375 
L 37.640625 32.859375 
L 36.234375 25.4375 
L 29 25.4375 
Q 22.265625 25.4375 18.3125 22.953125 
Q 12.9375 19.578125 12.9375 14.3125 
Q 12.9375 10.984375 15.828125 8.796875 
Q 19.4375 6.0625 26.8125 6.0625 
Q 31.34375 6.0625 35.6875 6.9375 
Q 40.046875 7.859375 43.84375 9.671875 
L 42.1875 1.3125 
Q 37.546875 -0.046875 33.296875 -0.734375 
Q 29.046875 -1.421875 25.140625 -1.421875 
Q 13.53125 -1.421875 8.0625 3.03125 
Q 3.90625 6.453125 3.90625 12.203125 
Q 3.90625 19.96875 9.375 24.75 
Q 13.421875 28.328125 19.734375 29.5 
z
" id="DejaVuSans-Oblique-949"/>
       <path d="M 42.28125 54.6875 
L 40.921875 47.703125 
L 23 47.703125 
L 17.1875 18.015625 
Q 16.890625 16.359375 16.75 15.234375 
Q 16.609375 14.109375 16.609375 13.484375 
Q 16.609375 10.359375 18.484375 8.9375 
Q 20.359375 7.515625 24.515625 7.515625 
L 33.59375 7.515625 
L 32.078125 0 
L 23.484375 0 
Q 15.484375 0 11.546875 3.125 
Q 7.625 6.25 7.625 12.59375 
Q 7.625 13.71875 7.765625 15.0625 
Q 7.90625 16.40625 8.203125 18.015625 
L 14.015625 47.703125 
L 6.390625 47.703125 
L 7.8125 54.6875 
L 15.28125 54.6875 
L 18.3125 70.21875 
L 27.296875 70.21875 
L 24.3125 54.6875 
z
" id="DejaVuSans-Oblique-116"/>
      </defs>
      <use transform="translate(0 0.015625)" xlink:href="#DejaVuSans-69"/>
      <use transform="translate(63.183594 0.015625)" xlink:href="#DejaVuSans-110"/>
      <use transform="translate(126.5625 0.015625)" xlink:href="#DejaVuSans-116"/>
      <use transform="translate(165.771484 0.015625)" xlink:href="#DejaVuSans-100"/>
      <use transform="translate(229.248047 0.015625)" xlink:href="#DejaVuSans-105"/>
      <use transform="translate(257.03125 0.015625)" xlink:href="#DejaVuSans-109"/>
      <use transform="translate(354.443359 0.015625)" xlink:href="#DejaVuSans-101"/>
      <use transform="translate(415.966797 0.015625)" xlink:href="#DejaVuSans-110"/>
      <use transform="translate(479.345703 0.015625)" xlink:href="#DejaVuSans-115"/>
      <use transform="translate(531.445312 0.015625)" xlink:href="#DejaVuSans-105"/>
      <use transform="translate(559.228516 0.015625)" xlink:href="#DejaVuSans-111"/>
      <use transform="translate(620.410156 0.015625)" xlink:href="#DejaVuSans-110"/>
      <use transform="translate(683.789062 0.015625)" xlink:href="#DejaVuSans-97"/>
      <use transform="translate(745.068359 0.015625)" xlink:href="#DejaVuSans-108"/>
      <use transform="translate(772.851562 0.015625)" xlink:href="#DejaVuSans-105"/>
      <use transform="translate(800.634766 0.015625)" xlink:href="#DejaVuSans-115"/>
      <use transform="translate(852.734375 0.015625)" xlink:href="#DejaVuSans-105"/>
      <use transform="translate(880.517578 0.015625)" xlink:href="#DejaVuSans-101"/>
      <use transform="translate(942.041016 0.015625)" xlink:href="#DejaVuSans-114"/>
      <use transform="translate(983.154297 0.015625)" xlink:href="#DejaVuSans-116"/>
      <use transform="translate(1022.363281 0.015625)" xlink:href="#DejaVuSans-101"/>
      <use transform="translate(1083.886719 0.015625)" xlink:href="#DejaVuSans-32"/>
      <use transform="translate(1115.673828 0.015625)" xlink:href="#DejaVuSans-75"/>
      <use transform="translate(1181.25 0.015625)" xlink:href="#DejaVuSans-97"/>
      <use transform="translate(1242.529297 0.015625)" xlink:href="#DejaVuSans-112"/>
      <use transform="translate(1306.005859 0.015625)" xlink:href="#DejaVuSans-97"/>
      <use transform="translate(1367.285156 0.015625)" xlink:href="#DejaVuSans-122"/>
      <use transform="translate(1419.775391 0.015625)" xlink:href="#DejaVuSans-105"/>
      <use transform="translate(1447.558594 0.015625)" xlink:href="#DejaVuSans-116"/>
      <use transform="translate(1486.767578 0.015625)" xlink:href="#DejaVuSans-228"/>
      <use transform="translate(1548.046875 0.015625)" xlink:href="#DejaVuSans-116"/>
      <use transform="translate(1587.255859 0.015625)" xlink:href="#DejaVuSans-32"/>
      <use transform="translate(1619.042969 0.015625)" xlink:href="#DejaVuSans-Oblique-67"/>
      <use transform="translate(1688.867188 0.015625)" xlink:href="#DejaVuSans-47"/>
      <use transform="translate(1722.558594 0.015625)" xlink:href="#DejaVuSans-Oblique-949"/>
      <use transform="translate(1776.611328 0.015625)" xlink:href="#DejaVuSans-Oblique-116"/>
     </g>
    </g>
   </g>
   <g id="line2d_43">
    <path clip-path="url(#p046ca9da46)" d="M 76.447319 23.829455 
L 80.004964 26.435345 
L 83.562608 29.041236 
L 87.120253 31.647127 
L 90.677897 34.253018 
L 94.235542 36.858909 
L 97.793187 39.4648 
L 101.350831 42.070691 
L 104.908476 44.676582 
L 108.46612 47.282473 
L 112.023765 49.888364 
L 115.581409 52.494255 
L 119.139054 55.100145 
L 122.696699 57.706036 
L 126.254343 60.311927 
L 129.811988 62.917818 
L 133.369632 65.523709 
L 136.927277 68.1296 
L 140.484921 70.735491 
L 144.042566 73.341382 
L 147.600211 75.947273 
L 151.157855 78.553164 
L 154.7155 81.159055 
L 158.273144 83.764945 
L 161.830789 86.370836 
L 165.388434 88.976727 
L 168.946078 91.582618 
L 172.503723 94.188509 
L 176.061367 96.7944 
L 179.619012 99.400291 
L 183.176656 102.006182 
L 186.734301 104.612073 
L 190.291946 107.217964 
L 193.84959 109.823855 
L 197.407235 112.429745 
L 200.964879 115.035636 
L 204.522524 117.641527 
L 208.080169 120.247418 
L 211.637813 122.853309 
L 215.195458 125.4592 
L 218.753102 128.065091 
L 222.310747 130.670982 
L 225.868391 133.276873 
L 229.426036 135.882764 
L 232.983681 138.488655 
L 236.541325 141.094545 
L 240.09897 143.700436 
L 243.656614 146.306327 
L 247.214259 148.912218 
L 250.771903 151.518109 
L 254.329548 154.124 
L 257.887193 156.729891 
L 261.444837 159.335782 
L 265.002482 161.941673 
L 268.560126 164.547564 
L 272.117771 167.153455 
L 275.675416 169.759345 
L 279.23306 172.365236 
L 282.790705 174.971127 
L 286.348349 177.577018 
L 289.905994 180.182909 
L 293.463638 182.7888 
L 297.021283 185.394691 
L 300.578928 188.000582 
L 304.136572 190.606473 
L 307.694217 193.212364 
L 311.251861 195.818255 
L 314.809506 198.424145 
L 318.367151 201.030036 
L 321.924795 203.635927 
L 325.48244 206.241818 
L 329.040084 208.847709 
L 332.597729 211.4536 
L 336.155373 214.059491 
L 339.713018 216.665382 
L 343.270663 219.271273 
L 346.828307 221.877164 
L 350.385952 224.483055 
L 353.943596 227.088945 
L 357.501241 229.694836 
L 361.058885 232.300727 
L 364.61653 234.906618 
L 368.174175 237.512509 
L 371.731819 240.1184 
L 375.289464 242.724291 
L 378.847108 245.330182 
L 382.404753 247.936073 
L 385.962398 250.541964 
L 389.520042 253.147855 
L 393.077687 255.753745 
L 396.635331 258.359636 
L 400.192976 260.965527 
L 403.75062 263.571418 
L 407.308265 266.177309 
L 410.86591 268.7832 
L 414.423554 271.389091 
L 417.981199 273.994982 
L 421.538843 276.600873 
L 425.096488 279.206764 
L 428.654133 281.812655 
L 432.211777 284.418545 
" style="fill:none;stroke:#000000;stroke-dasharray:5.55,2.4;stroke-dashoffset:0;stroke-width:1.5;"/>
   </g>
   <g id="line2d_44">
    <path clip-path="url(#p046ca9da46)" d="M 93.685888 36.456301 
L 147.233775 75.678867 
L 178.55728 97.975717 
L 200.781661 113.238875 
L 218.020231 124.629811 
L 232.105167 133.575192 
L 244.013811 140.846385 
L 254.329548 146.911676 
L 263.428673 152.078846 
L 271.568117 156.561477 
L 278.93114 160.51326 
L 285.653054 164.047448 
L 291.836615 167.248836 
L 297.561698 170.181624 
L 302.891623 172.894844 
L 307.877435 175.426227 
L 312.560885 177.805032 
L 316.976559 180.054118 
L 321.153429 182.191498 
L 325.116004 184.231494 
L 328.885204 186.185603 
L 332.479027 188.063154 
L 335.913071 189.871798 
L 339.20094 191.61788 
L 342.354573 192.572588 
L 345.384501 193.637446 
L 348.300065 194.499629 
L 351.109585 195.456623 
L 353.820504 196.24058 
L 356.43951 197.10728 
L 358.972631 197.82448 
L 361.425321 198.6147 
L 363.802533 199.27443 
L 366.108772 199.999197 
L 368.348154 200.609052 
L 370.524446 201.277284 
L 372.641106 201.843534 
L 374.701316 202.462532 
L 376.708007 202.990398 
L 378.66389 203.566201 
L 380.571476 204.060068 
L 382.43309 204.597719 
L 384.250898 205.061298 
L 386.026914 205.565048 
L 387.763015 206.001501 
L 389.460958 206.474959 
L 391.122382 206.887003 
L 392.748827 207.333256 
L 394.341734 207.723235 
L 395.90246 208.144943 
L 397.432277 208.514893 
L 398.932388 208.914361 
L 400.403923 209.266061 
L 401.847952 209.645297 
L 403.265483 209.980309 
L 404.657471 210.341073 
L 406.024821 210.660775 
L 407.36839 211.004616 
L 408.688991 211.310228 
L 409.987396 211.638516 
L 411.264339 211.931123 
L 412.520517 212.245077 
L 413.756596 212.525649 
" style="fill:none;stroke:#1f77b4;stroke-linecap:square;stroke-width:1.5;"/>
    <defs>
     <path d="M -3 3 
L 3 -3 
M -3 -3 
L 3 3 
" id="mec8bc82a32" style="stroke:#1f77b4;"/>
    </defs>
    <g clip-path="url(#p046ca9da46)">
     <use style="fill:#1f77b4;stroke:#1f77b4;" x="93.685888" xlink:href="#mec8bc82a32" y="36.456301"/>
     <use style="fill:#1f77b4;stroke:#1f77b4;" x="147.233775" xlink:href="#mec8bc82a32" y="75.678867"/>
     <use style="fill:#1f77b4;stroke:#1f77b4;" x="178.55728" xlink:href="#mec8bc82a32" y="97.975717"/>
     <use style="fill:#1f77b4;stroke:#1f77b4;" x="200.781661" xlink:href="#mec8bc82a32" y="113.238875"/>
     <use style="fill:#1f77b4;stroke:#1f77b4;" x="218.020231" xlink:href="#mec8bc82a32" y="124.629811"/>
     <use style="fill:#1f77b4;stroke:#1f77b4;" x="232.105167" xlink:href="#mec8bc82a32" y="133.575192"/>
     <use style="fill:#1f77b4;stroke:#1f77b4;" x="244.013811" xlink:href="#mec8bc82a32" y="140.846385"/>
     <use style="fill:#1f77b4;stroke:#1f77b4;" x="254.329548" xlink:href="#mec8bc82a32" y="146.911676"/>
     <use style="fill:#1f77b4;stroke:#1f77b4;" x="263.428673" xlink:href="#mec8bc82a32" y="152.078846"/>
     <use style="fill:#1f77b4;stroke:#1f77b4;" x="271.568117" xlink:href="#mec8bc82a32" y="156.561477"/>
     <use style="fill:#1f77b4;stroke:#1f77b4;" x="278.93114" xlink:href="#mec8bc82a32" y="160.51326"/>
     <use style="fill:#1f77b4;stroke:#1f77b4;" x="285.653054" xlink:href="#mec8bc82a32" y="164.047448"/>
     <use style="fill:#1f77b4;stroke:#1f77b4;" x="291.836615" xlink:href="#mec8bc82a32" y="167.248836"/>
     <use style="fill:#1f77b4;stroke:#1f77b4;" x="297.561698" xlink:href="#mec8bc82a32" y="170.181624"/>
     <use style="fill:#1f77b4;stroke:#1f77b4;" x="302.891623" xlink:href="#mec8bc82a32" y="172.894844"/>
     <use style="fill:#1f77b4;stroke:#1f77b4;" x="307.877435" xlink:href="#mec8bc82a32" y="175.426227"/>
     <use style="fill:#1f77b4;stroke:#1f77b4;" x="312.560885" xlink:href="#mec8bc82a32" y="177.805032"/>
     <use style="fill:#1f77b4;stroke:#1f77b4;" x="316.976559" xlink:href="#mec8bc82a32" y="180.054118"/>
     <use style="fill:#1f77b4;stroke:#1f77b4;" x="321.153429" xlink:href="#mec8bc82a32" y="182.191498"/>
     <use style="fill:#1f77b4;stroke:#1f77b4;" x="325.116004" xlink:href="#mec8bc82a32" y="184.231494"/>
     <use style="fill:#1f77b4;stroke:#1f77b4;" x="328.885204" xlink:href="#mec8bc82a32" y="186.185603"/>
     <use style="fill:#1f77b4;stroke:#1f77b4;" x="332.479027" xlink:href="#mec8bc82a32" y="188.063154"/>
     <use style="fill:#1f77b4;stroke:#1f77b4;" x="335.913071" xlink:href="#mec8bc82a32" y="189.871798"/>
     <use style="fill:#1f77b4;stroke:#1f77b4;" x="339.20094" xlink:href="#mec8bc82a32" y="191.61788"/>
     <use style="fill:#1f77b4;stroke:#1f77b4;" x="342.354573" xlink:href="#mec8bc82a32" y="192.572588"/>
     <use style="fill:#1f77b4;stroke:#1f77b4;" x="345.384501" xlink:href="#mec8bc82a32" y="193.637446"/>
     <use style="fill:#1f77b4;stroke:#1f77b4;" x="348.300065" xlink:href="#mec8bc82a32" y="194.499629"/>
     <use style="fill:#1f77b4;stroke:#1f77b4;" x="351.109585" xlink:href="#mec8bc82a32" y="195.456623"/>
     <use style="fill:#1f77b4;stroke:#1f77b4;" x="353.820504" xlink:href="#mec8bc82a32" y="196.24058"/>
     <use style="fill:#1f77b4;stroke:#1f77b4;" x="356.43951" xlink:href="#mec8bc82a32" y="197.10728"/>
     <use style="fill:#1f77b4;stroke:#1f77b4;" x="358.972631" xlink:href="#mec8bc82a32" y="197.82448"/>
     <use style="fill:#1f77b4;stroke:#1f77b4;" x="361.425321" xlink:href="#mec8bc82a32" y="198.6147"/>
     <use style="fill:#1f77b4;stroke:#1f77b4;" x="363.802533" xlink:href="#mec8bc82a32" y="199.27443"/>
     <use style="fill:#1f77b4;stroke:#1f77b4;" x="366.108772" xlink:href="#mec8bc82a32" y="199.999197"/>
     <use style="fill:#1f77b4;stroke:#1f77b4;" x="368.348154" xlink:href="#mec8bc82a32" y="200.609052"/>
     <use style="fill:#1f77b4;stroke:#1f77b4;" x="370.524446" xlink:href="#mec8bc82a32" y="201.277284"/>
     <use style="fill:#1f77b4;stroke:#1f77b4;" x="372.641106" xlink:href="#mec8bc82a32" y="201.843534"/>
     <use style="fill:#1f77b4;stroke:#1f77b4;" x="374.701316" xlink:href="#mec8bc82a32" y="202.462532"/>
     <use style="fill:#1f77b4;stroke:#1f77b4;" x="376.708007" xlink:href="#mec8bc82a32" y="202.990398"/>
     <use style="fill:#1f77b4;stroke:#1f77b4;" x="378.66389" xlink:href="#mec8bc82a32" y="203.566201"/>
     <use style="fill:#1f77b4;stroke:#1f77b4;" x="380.571476" xlink:href="#mec8bc82a32" y="204.060068"/>
     <use style="fill:#1f77b4;stroke:#1f77b4;" x="382.43309" xlink:href="#mec8bc82a32" y="204.597719"/>
     <use style="fill:#1f77b4;stroke:#1f77b4;" x="384.250898" xlink:href="#mec8bc82a32" y="205.061298"/>
     <use style="fill:#1f77b4;stroke:#1f77b4;" x="386.026914" xlink:href="#mec8bc82a32" y="205.565048"/>
     <use style="fill:#1f77b4;stroke:#1f77b4;" x="387.763015" xlink:href="#mec8bc82a32" y="206.001501"/>
     <use style="fill:#1f77b4;stroke:#1f77b4;" x="389.460958" xlink:href="#mec8bc82a32" y="206.474959"/>
     <use style="fill:#1f77b4;stroke:#1f77b4;" x="391.122382" xlink:href="#mec8bc82a32" y="206.887003"/>
     <use style="fill:#1f77b4;stroke:#1f77b4;" x="392.748827" xlink:href="#mec8bc82a32" y="207.333256"/>
     <use style="fill:#1f77b4;stroke:#1f77b4;" x="394.341734" xlink:href="#mec8bc82a32" y="207.723235"/>
     <use style="fill:#1f77b4;stroke:#1f77b4;" x="395.90246" xlink:href="#mec8bc82a32" y="208.144943"/>
     <use style="fill:#1f77b4;stroke:#1f77b4;" x="397.432277" xlink:href="#mec8bc82a32" y="208.514893"/>
     <use style="fill:#1f77b4;stroke:#1f77b4;" x="398.932388" xlink:href="#mec8bc82a32" y="208.914361"/>
     <use style="fill:#1f77b4;stroke:#1f77b4;" x="400.403923" xlink:href="#mec8bc82a32" y="209.266061"/>
     <use style="fill:#1f77b4;stroke:#1f77b4;" x="401.847952" xlink:href="#mec8bc82a32" y="209.645297"/>
     <use style="fill:#1f77b4;stroke:#1f77b4;" x="403.265483" xlink:href="#mec8bc82a32" y="209.980309"/>
     <use style="fill:#1f77b4;stroke:#1f77b4;" x="404.657471" xlink:href="#mec8bc82a32" y="210.341073"/>
     <use style="fill:#1f77b4;stroke:#1f77b4;" x="406.024821" xlink:href="#mec8bc82a32" y="210.660775"/>
     <use style="fill:#1f77b4;stroke:#1f77b4;" x="407.36839" xlink:href="#mec8bc82a32" y="211.004616"/>
     <use style="fill:#1f77b4;stroke:#1f77b4;" x="408.688991" xlink:href="#mec8bc82a32" y="211.310228"/>
     <use style="fill:#1f77b4;stroke:#1f77b4;" x="409.987396" xlink:href="#mec8bc82a32" y="211.638516"/>
     <use style="fill:#1f77b4;stroke:#1f77b4;" x="411.264339" xlink:href="#mec8bc82a32" y="211.931123"/>
     <use style="fill:#1f77b4;stroke:#1f77b4;" x="412.520517" xlink:href="#mec8bc82a32" y="212.245077"/>
     <use style="fill:#1f77b4;stroke:#1f77b4;" x="413.756596" xlink:href="#mec8bc82a32" y="212.525649"/>
    </g>
   </g>
   <g id="patch_3">
    <path d="M 58.659096 297.448 
L 58.659096 10.8 
" style="fill:none;stroke:#000000;stroke-linecap:square;stroke-linejoin:miter;stroke-width:0.8;"/>
   </g>
   <g id="patch_4">
    <path d="M 450 297.448 
L 450 10.8 
" style="fill:none;stroke:#000000;stroke-linecap:square;stroke-linejoin:miter;stroke-width:0.8;"/>
   </g>
   <g id="patch_5">
    <path d="M 58.659096 297.448 
L 450 297.448 
" style="fill:none;stroke:#000000;stroke-linecap:square;stroke-linejoin:miter;stroke-width:0.8;"/>
   </g>
   <g id="patch_6">
    <path d="M 58.659096 10.8 
L 450 10.8 
" style="fill:none;stroke:#000000;stroke-linecap:square;stroke-linejoin:miter;stroke-width:0.8;"/>
   </g>
   <g id="legend_1">
    <g id="patch_7">
     <path d="M 333.273438 48.178125 
L 443 48.178125 
Q 445 48.178125 445 46.178125 
L 445 17.8 
Q 445 15.8 443 15.8 
L 333.273438 15.8 
Q 331.273438 15.8 331.273438 17.8 
L 331.273438 46.178125 
Q 331.273438 48.178125 333.273438 48.178125 
z
" style="fill:#ffffff;opacity:0.8;stroke:#cccccc;stroke-linejoin:miter;"/>
    </g>
    <g id="line2d_45">
     <path d="M 335.273438 23.9 
L 355.273438 23.9 
" style="fill:none;stroke:#000000;stroke-dasharray:5.55,2.4;stroke-dashoffset:0;stroke-width:1.5;"/>
    </g>
    <g id="line2d_46"/>
    <g id="text_9">
     <!-- Analytisch $L/d$ -->
     <g transform="translate(363.273438 27.4)scale(0.1 -0.1)">
      <defs>
       <path d="M 32.171875 -5.078125 
Q 28.375 -14.84375 24.75 -17.8125 
Q 21.140625 -20.796875 15.09375 -20.796875 
L 7.90625 -20.796875 
L 7.90625 -13.28125 
L 13.1875 -13.28125 
Q 16.890625 -13.28125 18.9375 -11.515625 
Q 21 -9.765625 23.484375 -3.21875 
L 25.09375 0.875 
L 2.984375 54.6875 
L 12.5 54.6875 
L 29.59375 11.921875 
L 46.6875 54.6875 
L 56.203125 54.6875 
z
" id="DejaVuSans-121"/>
       <path d="M 48.78125 52.59375 
L 48.78125 44.1875 
Q 44.96875 46.296875 41.140625 47.34375 
Q 37.3125 48.390625 33.40625 48.390625 
Q 24.65625 48.390625 19.8125 42.84375 
Q 14.984375 37.3125 14.984375 27.296875 
Q 14.984375 17.28125 19.8125 11.734375 
Q 24.65625 6.203125 33.40625 6.203125 
Q 37.3125 6.203125 41.140625 7.25 
Q 44.96875 8.296875 48.78125 10.40625 
L 48.78125 2.09375 
Q 45.015625 0.34375 40.984375 -0.53125 
Q 36.96875 -1.421875 32.421875 -1.421875 
Q 20.0625 -1.421875 12.78125 6.34375 
Q 5.515625 14.109375 5.515625 27.296875 
Q 5.515625 40.671875 12.859375 48.328125 
Q 20.21875 56 33.015625 56 
Q 37.15625 56 41.109375 55.140625 
Q 45.0625 54.296875 48.78125 52.59375 
z
" id="DejaVuSans-99"/>
      </defs>
      <use transform="translate(0 0.015625)" xlink:href="#DejaVuSans-65"/>
      <use transform="translate(68.408203 0.015625)" xlink:href="#DejaVuSans-110"/>
      <use transform="translate(131.787109 0.015625)" xlink:href="#DejaVuSans-97"/>
      <use transform="translate(193.066406 0.015625)" xlink:href="#DejaVuSans-108"/>
      <use transform="translate(220.849609 0.015625)" xlink:href="#DejaVuSans-121"/>
      <use transform="translate(280.029297 0.015625)" xlink:href="#DejaVuSans-116"/>
      <use transform="translate(319.238281 0.015625)" xlink:href="#DejaVuSans-105"/>
      <use transform="translate(347.021484 0.015625)" xlink:href="#DejaVuSans-115"/>
      <use transform="translate(399.121094 0.015625)" xlink:href="#DejaVuSans-99"/>
      <use transform="translate(454.101562 0.015625)" xlink:href="#DejaVuSans-104"/>
      <use transform="translate(517.480469 0.015625)" xlink:href="#DejaVuSans-32"/>
      <use transform="translate(549.267578 0.015625)" xlink:href="#DejaVuSans-Oblique-76"/>
      <use transform="translate(604.980469 0.015625)" xlink:href="#DejaVuSans-47"/>
      <use transform="translate(638.671875 0.015625)" xlink:href="#DejaVuSans-Oblique-100"/>
     </g>
    </g>
    <g id="line2d_47">
     <path d="M 335.273438 38.598438 
L 355.273438 38.598438 
" style="fill:none;stroke:#1f77b4;stroke-linecap:square;stroke-width:1.5;"/>
    </g>
    <g id="line2d_48">
     <g>
      <use style="fill:#1f77b4;stroke:#1f77b4;" x="345.273438" xlink:href="#mec8bc82a32" y="38.598438"/>
     </g>
    </g>
    <g id="text_10">
     <!-- Finite Elemente -->
     <g transform="translate(363.273438 42.098438)scale(0.1 -0.1)">
      <defs>
       <path d="M 9.8125 72.90625 
L 51.703125 72.90625 
L 51.703125 64.59375 
L 19.671875 64.59375 
L 19.671875 43.109375 
L 48.578125 43.109375 
L 48.578125 34.8125 
L 19.671875 34.8125 
L 19.671875 0 
L 9.8125 0 
z
" id="DejaVuSans-70"/>
      </defs>
      <use xlink:href="#DejaVuSans-70"/>
      <use x="50.269531" xlink:href="#DejaVuSans-105"/>
      <use x="78.052734" xlink:href="#DejaVuSans-110"/>
      <use x="141.431641" xlink:href="#DejaVuSans-105"/>
      <use x="169.214844" xlink:href="#DejaVuSans-116"/>
      <use x="208.423828" xlink:href="#DejaVuSans-101"/>
      <use x="269.947266" xlink:href="#DejaVuSans-32"/>
      <use x="301.734375" xlink:href="#DejaVuSans-69"/>
      <use x="364.917969" xlink:href="#DejaVuSans-108"/>
      <use x="392.701172" xlink:href="#DejaVuSans-101"/>
      <use x="454.224609" xlink:href="#DejaVuSans-109"/>
      <use x="551.636719" xlink:href="#DejaVuSans-101"/>
      <use x="613.160156" xlink:href="#DejaVuSans-110"/>
      <use x="676.539062" xlink:href="#DejaVuSans-116"/>
      <use x="715.748047" xlink:href="#DejaVuSans-101"/>
     </g>
    </g>
   </g>
  </g>
 </g>
 <defs>
  <clipPath id="p046ca9da46">
   <rect height="286.648" width="391.340904" x="58.659096" y="10.8"/>
  </clipPath>
 </defs>
</svg>
